<svg width="30" height="31" viewBox="0 0 30 31" version="1.1" xmlns="http://www.w3.org/2000/svg"><g id="Desktop" stroke="none" stroke-width="1" fill="none" fill-rule="evenodd"><g id="Home-Copy-4" transform="translate(-732 -4394)" fill="#98694C" fill-rule="nonzero"><g id="Footer" transform="translate(0 3746)"><g id="Group-13" transform="translate(677.5 648.825)"><path d="M84.5 15.087c0-8.286-6.714-15-15-15s-15 6.714-15 15c0 7.487 5.485 13.693 12.656 14.819V19.423h-3.81v-4.336h3.81v-3.304c0-3.76 2.238-5.836 5.666-5.836 1.641 0 3.358.293 3.358.293v3.69h-1.892c-1.863 0-2.444 1.156-2.444 2.342v2.815h4.16l-.665 4.336h-3.495v10.483C79.014 28.78 84.5 22.574 84.5 15.087z" id="Path"/></g></g></g></g></svg>