<svg width="389" height="98" viewBox="0 0 389 98" version="1.1" xmlns="http://www.w3.org/2000/svg" xmlns:xlink="http://www.w3.org/1999/xlink"><defs><path id="path-1" d="M0 0h389v98H0z"/></defs><g id="Desktop" stroke="none" stroke-width="1" fill="none" fill-rule="evenodd"><g id="Coming-Soon" transform="translate(-526 -344)"><g id="Group-3" transform="translate(526 344)"><mask id="mask-2" fill="#fff"><use xlink:href="#path-1"/></mask><path d="M348.479 90.195l-3.873 3.916-3.872-3.916 3.872-3.916 3.873 3.916zm-300.212 0l-3.873 3.916-3.872-3.916 3.872-3.916 3.873 3.916zm274.45 3.527c0-1.113-.93-1.484-1.736-1.706l-3.13-.865c-2.323-.644-3.961-1.535-3.961-4.007 0-2.325 1.834-3.932 4.622-3.932 1.247 0 2.371.47 3.276 1.26l.538-.246v-.668h2.274v5.094h-1.957c-.88-2.25-2.665-3.165-4.131-3.165-1.395 0-2.177.693-2.177 1.583 0 1.089.88 1.36 2.03 1.657l3.13.915c2.102.569 3.667 1.73 3.667 3.907 0 2.646-1.736 4.451-4.744 4.451-1.418 0-2.885-.618-3.79-1.435l-.513.322v.767h-2.274v-5.713h1.956c.855 2.597 3.008 3.784 4.62 3.784 1.615 0 2.3-.817 2.3-2.003zm-33.18-4.18h2.324c2.274 0 3.13-.716 3.13-1.904 0-1.187-.856-1.904-3.13-1.904h-2.324v3.808zm-4.083 8.112v-2.176h.93l.88-.89v-7.963l-.88-.89h-.93v-2.177h6.455c3.717 0 5.649 1.435 5.649 4.08 0 2.153-1.247 3.488-3.644 3.907l3.082 3.834h2.03v2.275h-5.038v-2.176l-2.984-3.759h-1.467v2.868l.88.891h1.664v2.176h-6.627zm-18.269-2.176l.88-.89v-2.424h2.25v5.49h-13.01v-2.176h1.786l.881-.89v-7.963l-.88-.89h-1.786v-2.177h12.96v5.738h-2.249v-2.67l-.88-.892h-4.891v3.834h1.271l.881-.89v-1.435h1.858v6.627h-1.858v-1.434l-.88-.891h-1.272v3.933h4.94zm-31.696-11.92v2.176h-1.394l-.88.891v8.853h4.939l.88-.89v-3.414h2.249v6.48h-12.714v-2.176h1.492l.88-.89v-7.963l-.88-.89h-1.492v-2.177h6.92zm-28.152 0v2.176h-1.394l-.88.891v8.853h4.94l.88-.89v-3.414h2.25v6.48h-12.716v-2.176h1.491l.881-.89v-7.963l-.88-.89h-1.492v-2.177h6.92zm-29.78 2.176h-3.032v-2.176h10.293v2.176h-3.031l-.88.891v7.962l.88.891h3.031v2.176h-10.293v-2.176h3.031l.881-.89v-7.963l-.88-.89zm-18.9-2.176v6.48h-2.25v-3.413l-.88-.89h-1.858v8.852l.88.891h2.788v2.176h-9.806v-2.176h2.788l.88-.89v-8.854h-1.858l-.88.891v3.412h-2.25v-6.479h12.447zM128.34 93.722c0-1.113-.93-1.484-1.736-1.706l-3.13-.865c-2.323-.644-3.962-1.535-3.962-4.007 0-2.325 1.834-3.932 4.622-3.932 1.247 0 2.372.47 3.277 1.26l.538-.246v-.668h2.274v5.094h-1.957c-.88-2.25-2.665-3.165-4.132-3.165-1.393 0-2.176.693-2.176 1.583 0 1.089.88 1.36 2.03 1.657l3.13.915c2.102.569 3.667 1.73 3.667 3.907 0 2.646-1.736 4.451-4.743 4.451-1.418 0-2.886-.618-3.79-1.435l-.514.322v.767h-2.274v-5.713h1.956c.856 2.597 3.008 3.784 4.622 3.784 1.613 0 2.298-.817 2.298-2.003zm-32.494-7.988h-3.033v-2.176h10.295v2.176h-3.032l-.88.891v7.962l.88.891h3.032v2.176H92.812v-2.176h3.033l.88-.89v-7.963l-.88-.89zm-26.138 9.744c3.326 0 4.988-2.151 4.988-4.872 0-2.72-1.662-4.872-4.988-4.872h-1.344v9.744h1.344zm-5.869 2.176v-2.176h1.37l.88-.842v-8.01l-.88-.892h-1.37v-2.176h5.869c4.866 0 7.605 3.017 7.605 7.048 0 4.03-2.739 7.048-7.605 7.048h-5.869zm-6.677-84.576L71.783 24.7l-4.778 6.138-9.796-7.792-7.026 5.697.14 28.233 6.692 8.994-6.174 4.688-8.226-11.056-.156-31.383-6.69-8.984 6.173-4.7 5.055 6.789 10.164-8.246zM41.493 65.97l-6.175 4.688-5.232-7.032-12.514 8.588L.176 61.035 0 11.355 17.285 0l18.222 11.563-6.597 5.022L17.33 9.28l-9.589 6.302.133 41.15 9.652 6.204 9.551-6.27.011-15.298h-12.8l5.135-7.912h15.442l.004 23.613 6.624 8.9zm330.164-5.724l-9.652-6.203-.133-26.87 9.587-6.298 9.668 6.202.133 26.866-9.603 6.303zm17.168-37.474l-.006-.003.004-.007L355.206 1.21l-4.127 6.6 13.208 8.467-10.155 6.672.175 35.397 17.396 11.18L389 58.17l-.175-35.399zm-68.08 31.604l-.133-26.87 9.59-6.3 9.665 6.204.132 26.866-9.602 6.304-9.653-6.204zm9.41-42.45l-17.283 11.355.175 35.398 17.395 11.18 17.299-11.355-.177-35.398-17.41-11.18zm-50.587 42.671l-.132-26.868 9.59-6.301 9.665 6.204.131 26.867-9.601 6.302-9.653-6.204zm9.41-42.45l-17.283 11.356.175 35.398 17.396 11.18 17.298-11.355-.176-35.399-17.41-11.18zm-21.564 30.189c.681 7.578-2.046 16.001-6.946 21.46-3.376 3.76-7.411 5.76-11.672 5.78l-1.128.004-12.392-7.96-13.45 8.83-17.396-11.18-.158-31.97-6.692-8.994 6.175-4.69 8.225 11.058.149 30.292 9.652 6.204 9.603-6.302-.138-27.705-6.692-8.994 6.174-4.691 8.225 11.057.15 30.292 10.664 6.85c2.13-.382 3.87-1.886 4.981-3.13 3.468-3.863 5.466-10.091 4.973-15.5-1.191-13.189-10.062-20.303-17.964-22.564l-1.545-.442 2.1-7.514 1.545.441c10.374 2.966 22.01 12.239 23.557 29.368zM196.286 56.15l6.677 8.992-6.172 4.691-8.213-11.06-.15-30.526-9.664-6.204-9.591 6.302.14 27.942 6.677 8.991-6.174 4.692-8.21-11.06-.157-31.335-6.706-8.983 6.175-4.7 5.28 7.091 12.52-8.22 17.407 11.18.161 32.207zm-55.093-29.308l-16.625 14.81-.065-13.066 9.6-6.302 7.09 4.558zm-7.133-13.837L116.762 24.36l.175 35.398 17.41 11.178 16.868-11.078-4.22-6.547-12.696 8.347-9.664-6.206-.016-3.44 29.399-26.185-19.958-12.822zm-33.774 14.058L83.66 41.874l-.065-13.067 9.603-6.301 7.088 4.558zm-7.132-13.838L75.855 24.58l.175 35.399 17.411 11.179 16.869-11.08-4.221-6.547-12.696 8.347-9.664-6.204-.017-3.442 29.4-26.183-19.958-12.824z" id="Fill-1" fill="#FEFEFE" mask="url(#mask-2)"/></g></g></g></svg>