<svg width="31" height="31" viewBox="0 0 31 31" version="1.1" xmlns="http://www.w3.org/2000/svg"><g id="Desktop" stroke="none" stroke-width="1" fill="none" fill-rule="evenodd"><g id="Home-Copy-4" transform="translate(-677 -4394)" fill="#98694C" fill-rule="nonzero"><g id="Footer" transform="translate(0 3746)"><g id="Group-13" transform="translate(677.5 648.825)"><path d="M15.003 7.307a7.678 7.678 0 0 0-7.69 7.69 7.678 7.678 0 0 0 7.69 7.69 7.678 7.678 0 0 0 7.69-7.69 7.678 7.678 0 0 0-7.69-7.69zm0 12.69c-2.75 0-5-2.243-5-5 0-2.758 2.243-5 5-5 2.758 0 5 2.242 5 5 0 2.757-2.249 5-5 5zm9.798-13.005a1.79 1.79 0 0 1-1.793 1.794 1.794 1.794 0 1 1 1.794-1.794zm5.094 1.82c-.114-2.402-.663-4.53-2.423-6.284C25.718.775 23.59.226 21.187.105c-2.476-.14-9.898-.14-12.374 0C6.417.22 4.288.768 2.528 2.521.768 4.275.226 6.403.105 8.806c-.14 2.476-.14 9.898 0 12.375.114 2.402.663 4.53 2.423 6.284 1.76 1.754 3.882 2.302 6.285 2.423 2.476.14 9.898.14 12.374 0 2.403-.114 4.531-.663 6.285-2.423 1.753-1.753 2.302-3.882 2.423-6.284.14-2.477.14-9.892 0-12.368zm-3.2 15.026a5.062 5.062 0 0 1-2.85 2.85c-1.975.784-6.66.603-8.842.603-2.181 0-6.873.174-8.84-.602a5.062 5.062 0 0 1-2.852-2.851c-.783-1.975-.602-6.66-.602-8.841 0-2.182-.174-6.874.602-8.841a5.062 5.062 0 0 1 2.851-2.851c1.975-.784 6.66-.603 8.841-.603 2.182 0 6.874-.174 8.841.603a5.062 5.062 0 0 1 2.851 2.85c.784 1.975.603 6.66.603 8.842 0 2.181.18 6.873-.603 8.84z" id="Shape"/></g></g></g></g></svg>