<svg width="76" height="115" viewBox="0 0 76 115" version="1.1" xmlns="http://www.w3.org/2000/svg" xmlns:xlink="http://www.w3.org/1999/xlink"><defs><path id="path-1" d="M0 0h76v115H0z"/></defs><g id="Desktop" stroke="none" stroke-width="1" fill="none" fill-rule="evenodd"><g id="Coming-Soon" transform="translate(-683 -698)"><g id="Group-3" transform="translate(683 698)"><mask id="mask-2" fill="#fff"><use xlink:href="#path-1"/></mask><path d="M54.475 110.36c.724-.004 1.735-.074 2.592-.332.575-.71 1.148-1.433 1.831-2.006.52-.436.517-.31.496-.994-.02-.68.011-1.364.02-2.044.019-1.487-.158-2.902-.233-4.376-.072-1.405.012-2.836.015-4.243.004-2.569.023-5.138.005-7.707-.017-2.532.085-5.085-.18-7.603-.262-2.493-.118-5.1-.078-7.604.043-2.63.142-5.259.172-7.888.03-2.544-.211-5.074-.213-7.613-.001-2.585.342-5.153.351-7.74.008-2.466.047-4.912.156-7.376a53.38 53.38 0 0 0 .045-3.125c-.292-.182-.505-.5-.521-.952-.079-2.218-.077-4.424-.99-6.48-.77-1.727-2.468-2.588-4.166-3.224-2.108-.79-4.25-1.612-6.43-2.18a119.62 119.62 0 0 0-3.313-.798c-.916-.21-1.886-.679-2.84-.692-.23.306-.763.138-.667-.303l.041-.188a.39.39 0 0 1 .275-.275c.99-.25 2.055-.013 3.068.096a13 13 0 0 1-1.331-3.539c-.624.689-1.829.804-2.67 1.006-3.56.855-7.224.698-10.511-.899a4.52 4.52 0 0 1-1.471 2.386.917.917 0 0 1-.256.155c-.04.127-.082.253-.127.38.72-.054 1.467-.107 2.028-.4.683-.358 1.28.65.606 1.033-.74.421-1.648.433-2.473.576-1.16.2-2.272.579-3.387.948-2.026.67-4.28 1.307-6.115 2.42-1.774 1.074-2.436 3.582-2.75 5.492-.114.69-.234 1.41-.338 2.141.321-.229.808-.21.88.286.266 1.81-.078 3.84-.26 5.66-.05.514-.107 1.027-.165 1.54.454-.046.908-.095 1.363-.14-.09-3.518.327-6.993 1.997-10.188a9.327 9.327 0 0 0-.047-.574.945.945 0 0 0-.025.06c-.172.488-.828.379-.875-.118-.073-.779.168-2.009 1.08-2.203.403-.086.717.12.861.488.065.165.121.334.172.505 1.316-1.714 3.103-3.03 5.3-3.381 1.505-.24 3.034-.039 4.524.217 1.705.292 3.405.609 5.11.893.678.113.672 1.241 0 1.36-2.92.514-5.778-.273-8.703-.107-2.599.147-4.451 1.97-5.686 4.137-.087.152-.17.306-.25.46-.09 1.479-.345 2.97-.46 4.312-.113 1.32-.228 2.638-.343 3.957 1.583-.075 3.162-.168 4.747-.21 1.807-.05 3.564-.103 5.372-.023 1.806.08 3.617.162 5.425.199 1.73.035 3.46.2 5.19.137 1.847-.067 3.697-.052 5.546-.055 1.848-.003 3.697-.02 5.545-.024.874-.002 1.759.055 2.63-.004.81-.054 1.529-.224 2.343-.1.31.048.566.358.651.668.47-.001.966.307.913.842-.188 1.905-.091 3.82-.251 5.725-.154 1.834-.337 3.63-.35 5.474-.012 1.586.005 3.15.29 4.714.275 1.52.506 3.02.386 4.57-.247 3.206-1.23 6.337-1.41 9.54-.184 3.288.49 6.513.756 9.776.138 1.69.302 3.385.281 5.084-.017 1.387.098 2.876-.081 4.25-.05.376-.251.852-.696.912-1.778.24-3.465-.351-5.248.017-1.86.385-3.873.225-5.77.253-4.24.062-8.48-.016-12.72.044-4.31.06-8.612.335-12.92.476l-1.433.045c.019.208.034.417.054.625.014.149-.117.204-.23.176-.006.386-.012.772-.016 1.159-.016 1.782-.04 3.615.285 5.374.204 1.106.504 2.236.857 3.334.685-.112 1.357-.34 2.06-.396.887-.07 1.681-.365 2.585-.395 1.757-.06 3.396-.542 5.137-.677 1.972-.153 3.968-.373 5.944-.45 1.949-.076 4.02-.186 5.963-.03 1.579.127 3.19.494 4.772.457a8.363 8.363 0 0 1 2.45.318c.775.224 1.449.767 2.186 1.091 1.516.666 3.642 1.581 5.33 1.308 1.33-.216 1.858 1.573.56 2.03-1.623.57-3.182-.034-4.753-.483-.773-.221-1.479-.512-2.216-.828-.63-.27-1.23-.736-1.876-.924-.667-.194-1.321-.195-2.005-.178-.664.017-1.263-.209-1.915-.25-.69-.045-1.333.028-2.023-.107-.701-.136-1.359-.114-2.072-.103-1.659.026-3.317-.037-4.975.06-1.563.092-3.1.338-4.669.358-1.456.019-2.824.477-4.267.59-.764.06-1.56-.137-2.312-.041-.64.081-1.184.23-1.843.222-.499-.006-.967.102-1.445.183.168.43.363.872.594 1.285.443.032.881.06 1.31.092 1.82.13 3.65.186 5.474.145 3.092-.069 6.2.073 9.287.357.051-.528.36-.966.933-1.151.706-.228 1.396.27 1.62.917.014.045.03.088.047.131l.02.041c.03.058.062.116.094.173.196.049.382.135.55.254 1.32.175 2.636.354 3.974.359 1.705.006 3.393-.197 5.081-.416 1.745-.227 3.394-.128 5.14-.136zm-6.857-35.94c-.013-.002-.024.002-.032.016a.1.1 0 0 1 .032-.016zm-30.001 32.405a91.74 91.74 0 0 1-.201-.83c-.447-1.86-.616-3.683-.616-5.594a95 95 0 0 1 .11-4.465c-.794.02-1.588.035-2.382.046.01.507.024 1.014.041 1.523.085 2.496.107 5.057.494 7.525.09.582.172 1.163.293 1.734.414.087.83.157 1.246.159.34.001.677-.043 1.015-.098zm.006 1.636c-.643.078-1.225-.015-1.794-.17.182.423.244.463.752.584.486.116.964.2 1.458.282a.873.873 0 0 1 .28.098c-.098-.274-.188-.55-.272-.83-.14.008-.28.018-.424.036zm-3.109-14.208c.67-.039 1.341-.078 2.011-.124l.487-.035c.157-2.498.39-4.993.659-7.486-.151-2.158-.37-4.365-.428-6.475-.003-.103.15-.148.198-.054l.165.152c.061.01.122.076.135.135.225 1.06.225 2.193.262 3.29.297-2.544.613-5.084.903-7.617.041-.36.468-.464.67-.284-.41-1.553.736-3.719 2.216-4.251.788-.284 1.762-.162 2.314.525.541.673.097 1.206-.025 1.924-.054.314-.487.197-.514-.07-.18-1.794-1.935-.133-2 .898-.035.557.277.545.78.705l.064.017a.96.96 0 0 1 .558-.423c.23-.068.439-.09.628-.08.269-.354.859-1.783.942-1.956.36-.748.59-1.648 1.288-2.146.28-.199.698-.094.928.12.475.441.41.908.327 1.431.427-.568.864-1.13 1.466-1.556.373-.265.976-.145 1.277.164.859.879.186 1.978.053 2.978-.096.723.489.746 1.003.385.577-.404.972-1.068 1.294-1.676.637-1.206 2.214-.294 2.033.855-.068.43-.452 1.17.113 1.394.388.154.968-.272 1.254-.463.948-.634 2.01-1.71 3.259-1.448.514.108.986.473 1.225.939.063.124.173.507.22.842.17.042.344.063.524.055.361.004.744-.064 1.101-.106a11.696 11.696 0 0 0 2.183-.448c1.035-.328 2.418-1.579 3.52-.867.268.174.468.435.6.728.079-.027.142-.05.17-.063.999-.51 2.046-1.37 3.229-1.35 1.493.025 2.357 1.561 2.71 2.823.344 1.236-1.045 2.265-2.142 1.643l-.26-.147c-.506-.287-.678-.793-.591-1.271-.046-.178-.065-.344 0-.415-.18.068-.415.232-.506.28-.564.303-1.082.672-1.668.936-1.031.466-2.663.634-3.12-.668-.508.19-1.211.293-1.564.36-1.545.298-3.12-.093-4.61.314-.477.13-.975.115-1.395-.16-.03-.02-.2-.206-.37-.426-.202.135-.403.271-.6.413-.597.427-1.167.868-1.89 1.069-1.194.332-2.567-.02-3.34-1.006a2.922 2.922 0 0 1-.197-.29c-.84.583-1.827.837-2.876.367-.88-.395-1.466-1.177-1.532-2.123a3.38 3.38 0 0 1-.304.226c.04.138.075.278.104.42.274.418.19 1.106-.397 1.195l-.158.025c-.34.051-.785-.022-.946-.385-.14-.314-.272-.603-.378-.899-.035.085-.07.17-.107.254a3.601 3.601 0 0 1-.63.992c.03.694-.39 1.418-1.343 1.528-1.224.14-3.276-.627-3.817-1.814-.36 5.971-.817 11.943-1.005 17.923 6.254-.447 12.496-.922 18.771-1.02 3.482-.054 6.968-.02 10.45.035.83.013 1.666.082 2.495.073.615-.007 1.215-.177 1.833-.211 1.225-.068 2.383.224 3.57.316.012-.58-.079-1.184-.088-1.746-.015-.895-.027-1.79-.065-2.684-.081-1.905-.267-3.822-.474-5.717-.355-3.246-.948-6.295-.499-9.578.438-3.202 1.552-6.429 1.42-9.687-.062-1.528-.472-3.017-.588-4.54-.118-1.567-.071-3.156-.04-4.724.033-1.655.28-3.297.388-4.948.081-1.231.149-2.46.28-3.686-.271-.01-.525-.137-.645-.419a4.805 4.805 0 0 1-.053-.129c-.578.043-1.163.182-1.738.212-.89.045-1.783.024-2.673.02-1.849-.008-3.697-.014-5.545-.029-1.783-.014-3.566-.022-5.349-.061-1.735-.04-3.454-.257-5.194-.306a163.81 163.81 0 0 1-5.604-.24c-1.679-.104-3.31-.074-4.99-.068-1.624.006-3.243.07-4.865.105a5145.673 5145.673 0 0 0-.508 5.897c.049.5.098.998.144 1.492.028.303-.116.496-.317.586a523.326 523.326 0 0 0-.43 5.568 354.844 354.844 0 0 0-.423 6.905c-.031.63.01 1.28-.165 1.885l.076.102c.042.057-.027.13-.087.114l-.07.025c-.067.157-.299.092-.341-.045-.21-.673-.108-1.38-.09-2.08a350.536 350.536 0 0 1 .259-6.905c.094-1.965.202-3.928.317-5.891a.728.728 0 0 1-.084-.264c-.287-2.39-.627-4.856-.766-7.317-.517.02-1.035.042-1.552.057-.118.99-.239 1.979-.347 2.97a112.6 112.6 0 0 0-.312 3.152 34.673 34.673 0 0 1-.085 2.165c-.033.445-.048.887-.052 1.328.018 1.518.138 3.026.236 4.541a.615.615 0 0 1-.03.23c.022.412.04.826.05 1.242.06 2.518.107 5.043.1 7.561l-.02 7.799c-.005 2.522.185 5.124-.061 7.634-.224 2.285-.029 4.578-.235 6.86a43.595 43.595 0 0 0-.164 3.698zM40.02 2.697c-.813-.407-1.934-.424-2.827-.65a5.502 5.502 0 0 0-.315-.067c-1.22.358-2.627.367-3.858.494-.987.101-2.261.16-3.278.537.106.446.207.888.22 1.388.01.394.07.764.125 1.147l.145.492c.244.842.18 1.508-.367 2.206a.871.871 0 0 1-.091.097L30 8.295c1.377-.27 2.762-.581 4.173-.518.797.037 1.623.053 2.442.112.801-.062 1.6-.068 2.407.02 1.195.129 2.036.632 3.136.996l.122.042c-.103-.495-.129-.996-.148-1.52-.029-.787-.145-1.541.024-2.32a.8.8 0 0 1 .466-.578l.03-.177a1.116 1.116 0 0 1-.659-.6c-.277-.16-.56-.316-.845-.47-.012.188-.024.376-.043.563-.028.268-.448.275-.426 0 .021-.262.03-.525.044-.788a47.916 47.916 0 0 0-.703-.36zm2.293 16.807a15.95 15.95 0 0 1-.072-1.032c-.056-1.56.14-3.108.19-4.666.039-1.23-.328-2.688.07-3.862l.007-.016c-.18.003-.372.049-.613.075-.456.048-.775-.08-1.204-.207a6.522 6.522 0 0 0-.397-.103c.011.076-.005.108-.095.017.355.36.334 1.096-.173 1.334l-.126.06c-.55.258-1.233.066-1.407-.572a2.878 2.878 0 0 1-.093-.446c-.333-.019-1.2-.287-1.387-.307a77.23 77.23 0 0 0-1.143-.11c-1.207.166-2.407.385-3.617.388a.572.572 0 0 1-.575-.463c-.318.038-.638.077-.96.108-.449.044-.895.072-1.309.212.393 1.059.416 2.252.468 3.373.058 1.226.139 2.455.14 3.684.002.984-.189 1.953-.363 2.921.5.233 1.004.424 1.51.579a.682.682 0 0 1 .271-1.077c3.003-1.238 6.895-1.143 10.049-.61a.492.492 0 0 1 .425.467c.139.08.276.163.404.253zM36.6 19.8c-1.669.057-3.221.396-4.826.822-.014.004-.026.004-.04.007 2.01.507 4.071.482 6.212.242a21.874 21.874 0 0 0 2.83-.508c.09-.023.187-.06.282-.094-.14-.107-.289-.23-.405-.326-1.351-.051-2.695-.19-4.053-.143zm26.921 92.443c0 .79-.799 1.438-1.58 1.201l-.398-.121a1.288 1.288 0 0 1-.222-.093c-.69.081-1.337-.504-1.337-1.203 0-.207.058-.403.155-.576l-.023-.026-.023-.025a1.082 1.082 0 0 1-.194-.3l-.03.037c-.412.46-.884.802-1.396 1.056a.755.755 0 0 1-.716.585l-.062.069c-.415.436-.928.43-1.326.198a.953.953 0 0 1-.142.091c-.326.172-.63.183-.991.13a1.319 1.319 0 0 1-.58-.248 9.219 9.219 0 0 1-.317-.096c-1.185.009-2.366-.046-3.412.05-1.357.127-2.698.36-4.05.508-.319.258-.752.31-1.147.226a1.234 1.234 0 0 1-.299-.108h-.006c-1.82.085-3.589-.119-5.381-.346a7.76 7.76 0 0 0-.051.036c-.403.283-.973.26-1.403.08a1.508 1.508 0 0 1-.518-.355 84.044 84.044 0 0 0-10.343-.5c-.789.011-1.58 0-2.37-.022-.857.201-1.702.44-2.581.516-.13.01-.255.017-.377.02a.666.666 0 0 1-.771.9l-.41.346c-.15.126-.299.255-.496.301-.112.027-.235.03-.35.04-.33.026-.676-.318-.65-.647.01-.123.014-.254.047-.372.053-.191.172-.326.295-.473l.346-.41c.012-.013.027-.023.04-.036 0-.03 0-.06.004-.09a2.907 2.907 0 0 1-.41-.305c-.147.113-.37.202-.537.184a76.837 76.837 0 0 1-.216-.022.803.803 0 0 1-.41-.092.53.53 0 0 1-.235-.136 1.074 1.074 0 0 1-.336-.43c-.644-.085-1.285-.177-1.903-.403a1.311 1.311 0 0 1-.509-.329c-.174.163-.47.305-.71.284a84.067 84.067 0 0 1-.217-.02 1.01 1.01 0 0 1-.512-.138 137.95 137.95 0 0 0-.206-.159c-.2-.182-.286-.454-.298-.717a.969.969 0 0 1 .148-.52c-.405-.686-.634-1.61-.75-2.296-.467-2.789-.705-5.575-.817-8.4-.04-1.011-.106-2.045-.152-3.083-.448.001-.897-.002-1.345-.015a10.675 10.675 0 0 1-1.356-.105c-.179-.029-.627-.02-.523-.187-.31.499-1.12.174-.956-.402.293-1.03 2.03-.819 2.835-.857.433-.02.865-.044 1.297-.065-.01-.957.02-1.908.127-2.839.286-2.492.022-4.998.286-7.491.271-2.562.068-5.21.062-7.786l-.02-7.995c-.008-2.783.15-5.57.097-8.354-.026-1.316-.158-2.628-.155-3.944.001-.407.023-.811.055-1.214l.003-.303c.02-1.565.162-3.124.34-4.678.034-1.592.016-3.19.029-4.778-.265-.196-.259-.637.011-.832.018-.886.063-1.77.118-2.653-.737-2.41-.254-5.152.185-7.589.384-2.14 1.157-4.411 2.838-5.898.753-.667 1.718-.999 2.644-1.35 1.156-.438 2.316-.866 3.498-1.229 1.107-.34 2.225-.694 3.354-.97.04-.354.207-.72.336-1.036.063-.154.138-.297.218-.438a.937.937 0 0 1 .043-.212c.177-.527.475-.914.733-1.392.292-.54.309-1.14.413-1.734.198-1.135.453-2.16.47-3.322a71.8 71.8 0 0 1 .154-3.653c.051-.777.1-1.564.297-2.31a.53.53 0 0 1-.543-.387c-.498-.129-.887-.66-.552-1.254.36-.725.221-1.642.249-2.428.01-.285.049-.604.068-.926l-.022-.248a2.821 2.821 0 0 1-.013-.233c-.09-.39-.185-.777-.301-1.161a.912.912 0 0 1 .061-.715 2.13 2.13 0 0 1-.079-.333c-.074-.529.05-.98.525-1.287 1.25-.807 2.94-.893 4.384-1.059 1.541-.178 3.707-.647 5.174-.043.25.103.411.273.49.465 1.047.116 2.092.055 3.086.461.055.023.114.044.171.065.155-.113.347-.005.392.138.627.207 1.3.395 1.827.753.505-.724 1.564.168 1.14.753-.318 1.037-.367 2.105-.214 3.18.163 1.148.814 2.41.496 3.57-.16.584-.594.843-1.05.849.246 1.047.313 2.24.383 3.273.097 1.428.056 2.864.21 4.288.133 1.23.368 2.53.852 3.675.469 1.111 1.138 2.048 1.252 3.267.508.085 1.016.177 1.52.265 1.339.232 2.578.658 3.87 1.06 1.185.367 2.391.67 3.547 1.125 2.088.824 3.792 1.985 4.747 4.068 1.051 2.292 1.24 4.696 1.15 7.203a1.246 1.246 0 0 1-.135.536c.025.156.047.313.066.471.164 1.397.145 2.821.155 4.224.02 2.86.204 5.722.15 8.58-.049 2.668-.257 5.265-.092 7.936.167 2.692.152 5.397.066 8.092-.086 2.688-.194 5.374-.205 8.064-.011 2.555.197 5.09.174 7.639-.048 5.294-.121 10.61-.015 15.902.027 1.328.261 2.626.258 3.964-.004 1.207.09 2.46.013 3.66-.048.731-.4 1.132-.842 1.52.03-.002.06-.004.09-.004.32 0 .604.133.835.345a1.168 1.168 0 0 1 .32 1.067 1.148 1.148 0 0 1-.035.207c-.002.016-.008.032-.011.048.731-.123 1.435.494 1.435 1.235zm12.128-3.217c-.289-.288-.77-.444-1.168-.308l-.131.045a1.22 1.22 0 0 0-.6.412c-.15.194-.259.445-.247.697.009.205.061.4.157.581.14.264.417.436.69.529l.13.045c.386.132.896-.012 1.169-.308.215-.234.351-.522.351-.847 0-.307-.134-.63-.351-.846zm-7.158-.63l-1.66-.252c-.567-.086-1.138.237-1.138.866 0 .625.57.953 1.139.866l1.659-.251c.61-.093.61-1.137 0-1.23zm-1.087 4.33a1.006 1.006 0 0 0-.371-.216.675.675 0 0 0-.297-.023.951.951 0 0 0 .246-.268l.073-.101c.21-.293.174-.747 0-1.043a1.044 1.044 0 0 0-.894-.512c-.365 0-.71.198-.894.512-.174.296-.21.75 0 1.043l.072.101a.956.956 0 0 0 .822.47c.017 0 .034-.002.05-.003-.198.116-.385.26-.573.389-.297.202-.53.514-.513.892.013.274.105.533.304.73.187.188.466.303.732.303.385 0 .684-.205.894-.512.164-.24.36-.478.48-.744.082-.177.127-.337.1-.535a.799.799 0 0 0-.23-.483zm2.86-.802c-.25.011-.51.093-.684.283-.164.178-.308.431-.283.682.012.12.016.244.05.36.046.161.127.3.245.42l.207.159c.23.176.7.176.931 0l.207-.16a.946.946 0 0 0 .245-.419c.034-.116.038-.24.05-.36.023-.232-.124-.524-.283-.682-.168-.168-.444-.294-.685-.283zm-64.362.241c-.934 0-.935 1.449 0 1.449.934 0 .936-1.449 0-1.449zm5.408-4.189c.037.078.066.155.095.23l.01.018-.105-.248zm.296 4.074c.07.09.118.2.136.32.044.294-.155.681-.479.73-.582.09-1.122.057-1.675-.16-.28-.11-.54-.348-.52-.68l.002-.02a1.06 1.06 0 0 1-.257-.644c-.024-.518.46-.978.97-.974.09-.17.226-.318.408-.42a1.547 1.547 0 0 1-.493-.166c-.203-.107-.353-.298-.48-.484a.856.856 0 0 1-.045-.073 2.477 2.477 0 0 1-.151-.358 1.936 1.936 0 0 1-.068-.48c.004-.123.021-.276.064-.393.11-.296.281-.59.574-.744.196-.104.408-.16.63-.17.273-.013.546.105.756.267a.94.94 0 0 1 .322.35l.117.276.004.007-.003-.003c.073.104.134.213.17.355.01.033.016.067.026.1.141.503-.09 1.056-.504 1.343.51.117.921.59.921 1.136 0 .35-.17.67-.425.885zm6.079-.089a.882.882 0 0 0-.65-.18l.059-.008c-.025.003-.05.004-.073.005-.007-.004-.015-.007-.022-.012a.87.87 0 0 0-.514-.177.888.888 0 0 0-.616.255.887.887 0 0 0 0 1.229 1.61 1.61 0 0 0 1.264.508c.545-.033.97-.463.894-1.028a.86.86 0 0 0-.342-.592zM6.55 110.547c-.797 0-.798 1.236 0 1.236.797 0 .799-1.236 0-1.236zm-4.535.531c-.525-.028-.985.137-1.492.242-.806.166-.634 1.491.196 1.441.508-.03 1.008-.083 1.491-.241.794-.26.642-1.398-.195-1.442zm47.083-24.095c-.911-.08-1.895-.255-2.807-.215-1.057.046-1.196 1.43-.242 1.783.912.337 2.094.345 3.05.248 1.161-.118 1.176-1.713 0-1.816zm-7.127-.283c-.923.08-1.81.37-2.72.537-.692.126-1.666-.038-2.155.531-.066.078-.062.168 0 .246.459.571 1.279.365 1.95.39.981.038 1.948.2 2.925.247 1.27.062 1.247-2.06 0-1.95zm-11.503.614c-.756-.108-1.447-.154-2.208-.06-.268.034-.611.145-.949.228-.19-.193-.494-.288-.78-.141-.224.114-.436.164-.655.29-.448.258-.53 1.06 0 1.294.68.3 1.307.243 2.028.126.894-.144 1.703-.289 2.564-.583.499-.17.637-1.063 0-1.154zm12.158-5.937c-3.845.13-8.005-.589-11.637.98-.517.222-.606.85-.54 1.325.196 1.43 2.235 1.46 3.305 1.372 1.95-.161 3.897-.415 5.841-.633a.904.904 0 0 0 .645-.345c.926-.055 1.846-.178 2.684-.506 1.095-.428 1.062-2.24-.298-2.193zm-12.27-13.465c.934-.523 1.646-1.295 2.429-2.013.87-.798 1.777-1.56 2.669-2.335l.76-.655c.637.505 1.298 1 1.85 1.59.64.682.868 1.53 1.135 2.404.41 1.335 2.756 1.172 2.567-.347-.293-2.345-1.302-3.801-3.194-5.184l-.297-.218c.978-.824 1.962-1.64 2.95-2.453.947-.778-.291-2.376-1.313-1.698-1.254.831-2.451 1.74-3.627 2.675a57.296 57.296 0 0 1-3.499-2.838c-1.1-.978-2.694.576-1.63 1.626a57.18 57.18 0 0 0 3.124 2.837l-.293.24c-1.686 1.38-3.199 2.936-4.846 4.351-.222.128-.391.33-.48.603l-.03.093c-.321 1 .864 1.804 1.724 1.322zm21.098-31.68c-1.17.332-2.336.363-3.545.371-1.287.009-2.572.081-3.858.124-2.443.08-4.896.262-7.341.217-2.493-.046-4.983-.254-7.474-.35-2.508-.096-5.072.038-7.567-.188-.863-.078-.854-1.245 0-1.333 2.477-.254 5.08-.06 7.567-.005 2.425.055 4.847.198 7.273.23 2.514.034 5.03-.153 7.542-.247 2.397-.09 4.818-.067 7.207-.26.852-.07.966 1.222.196 1.44z" id="Fill-1" fill="#FEFEFE" mask="url(#mask-2)"/></g></g></g></svg>