<?xml version="1.0" encoding="UTF-8"?>
<svg width="76px" height="115px" viewBox="0 0 76 115" version="1.1" xmlns="http://www.w3.org/2000/svg" xmlns:xlink="http://www.w3.org/1999/xlink">
    <!-- Generator: Sketch 52.3 (67297) - http://www.bohemiancoding.com/sketch -->
    <title>Group 3</title>
    <desc>Created with Sketch.</desc>
    <defs>
        <polygon id="path-1" points="0 0 76 0 76 115 0 115"></polygon>
    </defs>
    <g id="Desktop" stroke="none" stroke-width="1" fill="none" fill-rule="evenodd">
        <g id="Coming-Soon" transform="translate(-683.000000, -698.000000)">
            <g id="Group-3" transform="translate(683.000000, 698.000000)">
                <mask id="mask-2" fill="white">
                    <use xlink:href="#path-1"></use>
                </mask>
                <g id="Clip-2"></g>
                <path d="M54.4747517,110.359682 C55.1989973,110.35618 56.2100095,110.285729 57.066593,110.028025 C57.6423971,109.317125 58.2151045,108.594689 58.898059,108.02222 C59.4181202,107.585915 59.4154363,107.711368 59.3943778,107.027866 C59.3737323,106.347866 59.40532,105.663951 59.4139911,104.983745 C59.4327785,103.497055 59.2556398,102.081641 59.1806965,100.607929 C59.1092629,99.2028148 59.1930838,97.7723626 59.1955613,96.3645703 C59.1998968,93.7959775 59.2188907,91.2269728 59.201342,88.6583801 C59.1835868,86.126249 59.2864016,83.5733122 59.0211064,81.054571 C58.758908,78.5617857 58.902601,75.9552893 58.9432727,73.450968 C58.986009,70.8211938 59.0851076,68.1924495 59.1154566,65.5626753 C59.1443603,63.0185964 58.9036333,60.4885253 58.9019817,57.9495963 C58.9005365,55.3653477 59.2440783,52.796549 59.2529559,50.2102404 C59.2612141,47.7440288 59.3000277,45.2977991 59.4088297,42.8338535 C59.4550757,41.7925321 59.4682889,40.7507987 59.453837,39.7090653 C59.1621155,39.5265508 58.948847,39.2099315 58.9327435,38.7567352 C58.8542905,36.5387516 58.856355,34.3333338 57.9423769,32.2776769 C57.1739498,30.5497632 55.4746153,29.6891023 53.7767259,29.0525676 C51.6686096,28.2621521 49.5270476,27.4414549 47.3477042,26.8735176 C46.2479162,26.586768 45.1409022,26.3305061 44.0336818,26.0752742 C43.118465,25.864126 42.1477116,25.3960978 41.1949198,25.3833259 C40.9630704,25.6890274 40.4314477,25.5205208 40.527243,25.0800964 C40.5408691,25.017267 40.5544951,24.9546435 40.5681212,24.891814 C40.5961991,24.7622411 40.7165626,24.649354 40.8433262,24.6172183 C41.8338993,24.3669304 42.8979706,24.6038284 43.9110473,24.7132135 C43.2898229,23.5977327 42.8521375,22.4087106 42.5798228,21.1739568 C41.9559145,21.8628151 40.7512471,21.9775561 39.9097348,22.1796405 C36.350237,23.0349454 32.6858598,22.8775627 29.3986766,21.2814879 C29.1618722,22.2185741 28.6923926,23.0050756 27.9276818,23.6669481 C27.8496416,23.7343096 27.7631368,23.7853972 27.6722964,23.8222709 C27.6328634,23.9487538 27.5903336,24.0750308 27.5453263,24.2011017 C28.2650299,24.1477482 29.0117792,24.0952186 29.5733379,23.801259 C30.255673,23.443852 30.8523292,24.4513897 30.1788716,24.8351645 C29.4395548,25.256431 28.5305316,25.2683789 27.7061551,25.4109297 C26.5456692,25.611572 25.4343197,25.9899909 24.3188411,26.3591399 C22.2931005,27.0294583 20.0396396,27.665581 18.2040445,28.7781778 C16.4295602,29.8534889 15.768077,32.3611062 15.4538519,34.2705044 C15.3403014,34.9603926 15.2199379,35.6803567 15.1160908,36.4124746 C15.4373354,36.1831985 15.9239508,36.2013264 15.9966232,36.6975763 C16.2617119,38.5085073 15.9181701,40.5386205 15.7366958,42.3577914 C15.6854948,42.8715512 15.629339,43.3846929 15.5709121,43.8980407 C16.025114,43.851691 16.4793159,43.8028694 16.9341372,43.7577558 C16.8445356,40.2403349 17.2611626,36.7645257 18.9313869,33.5703162 C18.9212706,33.3781197 18.90558,33.1867473 18.8836957,32.9961989 C18.87296,33.0203007 18.8636695,33.0415185 18.8585082,33.0561444 C18.6871502,33.5441544 18.0308284,33.4345633 17.983963,32.9381074 C17.9106713,32.1592278 18.1522242,30.929006 19.0639313,30.7349556 C19.4673452,30.6492603 19.7811574,30.8548466 19.9250568,31.2227596 C19.9896774,31.3883822 20.0462462,31.5568888 20.0968278,31.7276614 C21.4125681,30.0135496 23.1998527,28.6976325 25.3973642,28.3470234 C26.9024242,28.1070354 28.4308136,28.3082957 29.9214217,28.5641456 C31.6257112,28.8564572 33.3264909,29.1726646 35.0313998,29.4569422 C35.7091929,29.5698293 35.7025863,30.6980819 35.0313998,30.816325 C32.1100556,31.3311147 29.2527126,30.5442012 26.3280652,30.7100298 C23.7294108,30.8573186 21.8768864,32.6797855 20.6418701,34.8466816 C20.5549523,34.9993263 20.4721637,35.1530011 20.3916461,35.3068818 C20.3014251,36.7855375 20.0474849,38.2775832 19.9322828,39.6190441 C19.8191452,40.9382572 19.7041496,42.2572642 19.5893603,43.5762713 C21.1718411,43.5012879 22.7508122,43.4077647 24.3363898,43.3653291 C26.143494,43.3167135 27.8998103,43.2631539 29.7079468,43.3428753 C31.5142253,43.4225966 33.3248393,43.5045839 35.1325629,43.5416636 C36.8624529,43.5770953 38.593788,43.7418939 40.3224392,43.6792705 C42.1704217,43.612321 44.0196429,43.6265349 45.868864,43.6238569 C47.7172594,43.6209729 49.5656547,43.6046991 51.4140501,43.6001671 C52.287563,43.5981071 53.1726374,43.6549627 54.0444986,43.5964592 C54.8533909,43.5420756 55.572888,43.371509 56.3865288,43.496344 C56.6970378,43.5441356 56.953249,43.854369 57.0381021,44.1641905 C57.5077882,44.1625425 58.0039006,44.4711279 57.951048,45.0063115 C57.7629671,46.9111777 57.8600012,48.8259319 57.6997918,50.7312101 C57.5455696,52.5654189 57.3628565,54.360282 57.3496434,56.2054088 C57.3382883,57.7913896 57.3552177,59.3549167 57.6390939,60.9194737 C57.9149183,62.4387112 58.145529,63.9394087 58.0261978,65.4887219 C57.7792771,68.6950854 56.7959299,71.8260534 56.6161073,75.0291209 C56.4315361,78.3166477 57.1058195,81.541963 57.3719406,84.804976 C57.5098528,86.49581 57.6739848,88.190352 57.6533393,89.8888079 C57.6364099,91.2757944 57.7511992,92.7649561 57.5717894,94.1387587 C57.5228595,94.5149116 57.3207396,94.9905617 56.8762411,95.0505072 C55.0984535,95.2909072 53.4108869,94.6996921 51.6277315,95.068223 C49.7671552,95.4526158 47.7550407,95.2925552 45.8579219,95.3205709 C41.6187728,95.3831944 37.3779721,95.3051211 33.1386165,95.3646546 C28.8276209,95.4254241 24.5259158,95.7000198 20.2180171,95.8407166 C19.7404857,95.8563725 19.2627479,95.8714104 18.7852165,95.8856242 C18.803591,96.0943005 18.8194881,96.3027708 18.8388949,96.5112411 C18.852521,96.6595598 18.7222476,96.7153854 18.6086971,96.6867516 C18.6025034,97.0729984 18.5967227,97.4594512 18.5932129,97.845904 C18.5771094,99.6279953 18.5529541,101.46138 18.8775021,103.219988 C19.0816865,104.326198 19.3820791,105.455893 19.734705,106.55407 C20.4201369,106.441595 21.0917364,106.214173 21.7955429,106.158347 C22.6820625,106.088102 23.47609,105.793318 24.3799519,105.76283 C26.1370939,105.703503 27.7755241,105.221261 29.5173885,105.086126 C31.4886248,104.933481 33.4850487,104.712651 35.4610335,104.635608 C37.4095597,104.559594 39.4803076,104.450209 41.4238789,104.60615 C43.0026435,104.732839 44.614028,105.099722 46.195683,105.06326 C46.9971429,105.04472 47.8733397,105.156165 48.6469281,105.38091 C49.4209295,105.605448 50.0950064,106.148253 50.8322587,106.472289 C52.347848,107.138487 54.4743388,108.05312 56.161286,107.779966 C57.4918911,107.564492 58.0195912,109.353381 56.7222254,109.809873 C55.0990729,110.3809 53.5397151,109.776295 51.9687958,109.326807 C51.1960332,109.105565 50.4903686,108.815313 49.7533227,108.499106 C49.1226014,108.22863 48.5236742,107.762662 47.8772623,107.574791 C47.2099984,107.380947 46.5557412,107.380329 45.8723738,107.397427 C45.2084131,107.413907 44.6090731,107.188339 43.9568804,107.146109 C43.266287,107.101613 42.6244171,107.174537 41.9340302,107.040432 C41.2327012,106.904267 40.5751407,106.926309 39.8622501,106.937433 C38.2031744,106.963183 36.5451309,106.899735 34.8870874,106.997378 C33.3236006,107.089459 31.7869529,107.335215 30.2183046,107.355197 C28.762381,107.373531 27.3939945,107.832083 25.9508711,107.944558 C25.1871925,108.004092 24.3919263,107.807982 23.6385704,107.903977 C22.9993845,107.985346 22.4547551,108.134077 21.7955429,108.126249 C21.2971596,108.120275 20.8285058,108.2276 20.3513873,108.308969 C20.5188226,108.7393 20.7141295,109.180754 20.9453595,109.593781 C21.3877935,109.625504 21.8263048,109.654756 22.2551127,109.685656 C24.0743978,109.816877 25.9056574,109.871672 27.7290716,109.831091 C30.8211544,109.762081 33.9293408,109.903602 37.0156428,110.18788 C37.0672567,109.6597 37.3754946,109.222366 37.9494407,109.036967 C38.6553117,108.809133 39.3450793,109.306207 39.568464,109.954278 C39.5831224,109.998567 39.5998453,110.042033 39.6159488,110.085499 C39.6215231,110.097447 39.6277167,110.110836 39.6351491,110.126492 C39.6667368,110.184172 39.6979116,110.241645 39.7297057,110.298707 C39.9256319,110.347941 40.1124741,110.434254 40.2803223,110.552703 C41.599366,110.728213 42.9155193,110.90702 44.2535568,110.911552 C45.959085,110.917526 47.6474775,110.715441 49.335457,110.495847 C51.0802117,110.269043 52.7291711,110.368128 54.4747517,110.359682 Z M47.6175414,74.42019 C47.6047412,74.417718 47.5940055,74.4222499 47.5863667,74.4362578 C47.5880183,74.4331679 47.5995798,74.4276059 47.6175414,74.42019 Z M17.6166788,106.82537 C17.5489614,106.54995 17.4824828,106.273294 17.4160042,105.995815 C16.9694411,104.13565 16.8003541,102.311741 16.7999412,100.401107 C16.7997347,98.9123572 16.8395806,97.4242255 16.909569,95.9362998 C16.1157479,95.9558697 15.3217204,95.9713195 14.5278993,95.9824434 C14.5380156,96.4885813 14.5516417,96.9957491 14.5689839,97.5053888 C14.6538371,100.00147 14.6763408,102.562029 15.0626188,105.030301 C15.1534592,105.61204 15.2348027,106.193161 15.355992,106.763982 C15.7701416,106.850501 16.1855299,106.921365 16.6015375,106.922807 C16.9415696,106.924249 17.2791242,106.880165 17.6166788,106.82537 Z M17.6230789,108.46079 C16.9799703,108.538863 16.3981789,108.445546 15.8291878,108.290636 C16.0112815,108.713962 16.0730117,108.753514 16.5806855,108.874847 C17.0670945,108.990824 17.5452452,109.075695 18.0386737,109.156858 C18.1464434,109.174574 18.2368709,109.210624 18.3184208,109.254914 C18.2205609,108.98073 18.1309593,108.704074 18.0469319,108.425152 C17.9069551,108.43298 17.7661525,108.443486 17.6230789,108.46079 Z M14.5142733,94.2534998 C15.184634,94.2141541 15.8549947,94.1754264 16.5253555,94.1286648 C16.687423,94.1173349 16.849284,94.105593 17.011558,94.0942631 C17.168877,91.5963278 17.4019652,89.1006584 17.6707701,86.6084911 C17.5198512,84.4496289 17.3003891,82.2433872 17.2427881,80.1331407 C17.2401041,80.0303475 17.3932941,79.9848219 17.4411917,80.0793751 C17.4963153,80.1300507 17.551026,80.1807263 17.6061496,80.2314018 C17.6674669,80.2402598 17.7283712,80.3072092 17.7405521,80.3655067 C17.9662078,81.425986 17.9660014,82.5587706 18.0033698,83.6559175 C18.2996333,81.1120446 18.6155101,78.5724976 18.9059929,76.0385126 C18.947284,75.6786335 19.3740273,75.5754284 19.5761472,75.7550589 C19.1657138,74.2020378 20.3117478,72.0359657 21.7918267,71.5036661 C22.58028,71.2202125 23.5543366,71.3417514 24.1059855,72.0285498 C24.6471052,72.7021642 24.2030196,73.2346698 24.0805915,73.9527798 C24.0271195,74.2667212 23.5941825,74.1503322 23.5673433,73.8835644 C23.3873142,72.0891133 21.6320302,73.7502835 21.5669968,74.781305 C21.5318994,75.3379124 21.8442664,75.3259645 22.3473983,75.4860251 C22.3661857,75.4919991 22.3897216,75.497561 22.4107801,75.503123 C22.5266016,75.3129866 22.7103469,75.1572519 22.9688291,75.0800025 C23.1984075,75.0116111 23.4075468,74.9891573 23.5974858,75.0002812 C23.8656714,74.6463761 24.4559274,73.2171599 24.539129,73.0439154 C24.8993937,72.2961415 25.1295915,71.395517 25.8269979,70.8984431 C26.1065385,70.6992428 26.5248172,70.8036839 26.7554279,71.0181281 C27.2302754,71.4591705 27.1642096,71.9263746 27.0824533,72.4491983 C27.5087837,71.880643 27.9456434,71.3197096 28.5480803,70.8926752 C28.9207323,70.6281734 29.5235821,70.7482704 29.825007,71.0568558 C30.6838616,71.9358505 30.0110234,73.0350574 29.8780661,74.0353851 C29.7818579,74.7584392 30.3667461,74.780687 30.8808201,74.420396 C31.4578629,74.0160213 31.8530186,73.3520888 32.1748826,72.7435698 C32.8124169,71.5382738 34.3893234,72.4504343 34.208262,73.5986688 C34.1403382,74.0298232 33.7555053,74.7683271 34.3213996,74.9932772 C34.7091229,75.1473639 35.2886432,74.7213595 35.5754098,74.5295751 C36.5234531,73.8955123 37.5846339,72.8193772 38.8336892,73.082025 C39.3483826,73.1901741 39.8203397,73.5547911 40.0587957,74.0209653 C40.121971,74.1445642 40.2320118,74.5277211 40.2794965,74.8626743 C40.4487899,74.9051099 40.6228319,74.9255038 40.802861,74.9182938 C41.164158,74.9222078 41.5469263,74.8536104 41.9043006,74.8117927 C42.6425852,74.7256854 43.3781859,74.5889026 44.0873602,74.3639524 C45.1223212,74.0355911 46.5045403,72.7849755 47.6068057,73.4973176 C47.8747849,73.6705622 48.0752531,73.931768 48.2063523,74.2251096 C48.2858376,74.1983298 48.3494259,74.17567 48.376678,74.1616621 C49.3755093,73.6511983 50.4232705,72.7921854 51.6058472,72.8119613 C53.0987263,72.8368871 53.9631551,74.3734283 54.3153681,75.6353739 C54.6597357,76.8705397 53.271323,77.9001192 52.173806,77.2780043 C52.0873012,77.2289767 52.0007964,77.1799491 51.9142916,77.1307155 C51.4080629,76.8439659 51.2356726,76.3378281 51.3230033,75.859706 C51.2771702,75.6823415 51.2575569,75.5161009 51.3221774,75.4454435 C51.1431806,75.5128049 50.907615,75.6769856 50.816981,75.7256012 C50.2529448,76.0275947 49.7349482,76.3969496 49.1492342,76.6614514 C48.1175764,77.1272135 46.4861657,77.2946902 46.0290734,75.9929869 C45.5205737,76.1839474 44.8177995,76.2857105 44.4647607,76.353484 C42.9204742,76.6507395 41.3441871,76.2599607 39.8548177,76.6670134 C39.3776992,76.7976163 38.8799352,76.7815484 38.4597984,76.5061287 C38.4298624,76.4865589 38.2601561,76.3005424 38.0894174,76.0811542 C37.8877105,76.2162891 37.6874487,76.352042 37.4898709,76.4937688 C36.8932147,76.9214213 36.3231913,77.3616396 35.6001845,77.5628999 C34.4062528,77.8949692 33.0331178,77.5427121 32.2599422,76.5565983 C32.1841731,76.4595731 32.1205848,76.3635779 32.0625709,76.2677887 C31.2225038,76.8495278 30.2358533,77.1039357 29.1874727,76.6340536 C28.3071468,76.2393609 27.7210199,75.4569794 27.6553671,74.5106232 C27.5575072,74.5930225 27.4557247,74.6673879 27.3512582,74.7370153 C27.3904848,74.8752402 27.4259951,75.014907 27.4551053,75.1572519 C27.7294846,75.5754284 27.6458701,76.2628447 27.058298,76.352454 C27.0056519,76.3604879 26.9530057,76.3685218 26.9003596,76.3765558 C26.5601211,76.4284673 26.1147967,76.3549259 25.9537615,75.9921629 C25.8144041,75.6778095 25.6822726,75.3887939 25.5757416,75.0933924 C25.5408507,75.1782637 25.5061662,75.263341 25.4685913,75.3471823 C25.3001237,75.7256012 25.0932553,76.0648803 24.8382829,76.3394761 C24.8682189,77.0328663 24.4499402,77.7571563 23.4961162,77.8665414 C22.2718356,78.0068263 20.2200816,77.2403066 19.6793749,76.0527264 C19.3193167,82.024411 18.8620179,87.9958896 18.6741435,93.9764321 C24.9278845,93.5292098 31.1696512,93.0541777 37.4452765,92.9561225 C40.9273536,92.901739 44.4125275,92.9359347 47.8941917,92.9911422 C48.7241425,93.0041201 49.5609063,93.0733355 50.3898248,93.0640656 C51.0054748,93.0570617 51.6046085,92.8869071 52.2229424,92.8525054 C53.4480489,92.7847319 54.6060573,93.0770435 55.793176,93.1687127 C55.8047375,92.5884155 55.7141035,91.9848405 55.7048131,91.4226712 C55.6897418,90.5280206 55.6779738,89.632546 55.6399861,88.7385134 C55.5588491,86.8336472 55.3726263,84.9174511 55.165758,83.0222667 C54.811274,79.7755276 54.2175082,76.7265469 54.6669617,73.443758 C55.105473,70.2421326 56.218887,67.0149633 56.0871685,63.7573062 C56.0254383,62.2285929 55.614592,60.7400492 55.4993899,59.2160738 C55.381091,57.6502808 55.4277499,56.061004 55.4587182,54.4925329 C55.4915446,52.8375426 55.7394976,51.1963542 55.8474737,49.5450719 C55.9281978,48.3136141 55.9957087,47.0844223 56.1261886,45.8591444 C55.8555255,45.8486385 55.6022047,45.7217436 55.4820477,45.4401439 C55.4630538,45.3956483 55.445505,45.3530066 55.4289886,45.310983 C54.8505005,45.3536246 54.2660252,45.4934974 53.690634,45.5227492 C52.801637,45.5680688 51.907685,45.547469 51.0180686,45.543349 C49.1694668,45.5353151 47.3210714,45.5287232 45.4726761,45.5140973 C43.6895206,45.5000894 41.907191,45.4924675 40.1244485,45.4525038 C38.3893971,45.4135701 36.6696235,45.1956239 34.9304431,45.1474203 C33.0642926,45.0953027 31.1896774,45.0234093 29.3262108,44.9076383 C27.6473153,44.8031972 26.016524,44.8334789 24.3363898,44.8394529 C22.7117921,44.8454268 21.0933881,44.9088743 19.4708549,44.944306 C19.354827,46.2787629 19.238799,47.6134259 19.1238034,48.9480888 C19.0695056,49.5792676 19.0160336,50.2102404 18.9627681,50.8414192 C19.0119045,51.341171 19.0610409,51.8388629 19.1066676,52.3332588 C19.1347455,52.6364883 18.9914654,52.8286847 18.7901714,52.9185 C18.6380138,54.7741326 18.4924627,56.6303832 18.3601248,58.4874579 C18.2544196,59.9760015 18.1563533,61.4651632 18.0694356,62.9549429 C18.0219508,63.7671942 17.9777693,64.5796514 17.9370976,65.3923147 C17.9057164,66.0224635 17.9463881,66.6728001 17.7723462,67.2771991 C17.7975338,67.3111888 17.8229278,67.3453845 17.8481153,67.3793743 C17.8900258,67.4358178 17.8206568,67.5093592 17.7607847,67.4928793 C17.7374552,67.5013252 17.7139193,67.5095652 17.6905899,67.5178051 C17.6236983,67.6749818 17.3920553,67.6100923 17.3495255,67.4733095 C17.1399733,66.7996951 17.2421687,66.0931209 17.2605432,65.3923147 C17.2818081,64.5798574 17.3067892,63.7674002 17.3346607,62.9549429 C17.3862746,61.4653692 17.4488306,59.9762075 17.5194383,58.4874579 C17.6125497,56.5232641 17.7205259,54.5598944 17.8355216,52.5967306 C17.7938176,52.5200993 17.7636751,52.432756 17.7517007,52.3332588 C17.465347,49.9430606 17.1246956,47.476643 16.9859575,45.0161994 C16.4685802,45.0367992 15.9507901,45.0576051 15.4336192,45.0726429 C15.3159396,46.0624647 15.1953697,47.0516685 15.0873935,48.0421083 C14.9728107,49.0914637 14.8598796,50.142467 14.77482,51.1953242 C14.7673876,51.9185843 14.7422,52.6406083 14.6897604,53.3599543 C14.6573469,53.8047046 14.6418627,54.246983 14.6375271,54.6878193 C14.6559017,56.2056148 14.7758523,57.7137283 14.874125,59.2292577 C14.8794929,59.3108331 14.867312,59.3870524 14.8446019,59.4583278 C14.8658668,59.8711484 14.8838285,60.284999 14.8937383,60.7011155 C14.9538168,63.2194447 15.0010951,65.7435418 14.994695,68.2622829 C14.9880884,70.8617754 14.9814819,73.4612679 14.9748753,76.0607604 C14.9686816,78.5827975 15.1594464,81.184556 14.9129387,83.6946452 C14.6885216,85.9804023 14.8844478,88.2731633 14.6779924,90.5541824 C14.5658871,91.7926441 14.5210863,93.021836 14.5142733,94.2534998 Z M40.0185369,2.69673376 C39.2057219,2.28968113 38.0852883,2.27258327 37.1921622,2.04722114 C37.0885216,2.02085336 36.9828164,2.00025353 36.8773177,1.9796537 C35.6565468,2.33829673 34.2503789,2.34694866 33.0190788,2.47363761 C32.0316026,2.57540076 30.7577726,2.63308029 29.7407732,3.01108716 C29.8468913,3.45707346 29.9480545,3.89893981 29.9606483,4.39910367 C29.9705581,4.7931784 30.0306366,5.16335734 30.0863796,5.54610217 C30.1346902,5.71048881 30.1834137,5.87487545 30.2308984,6.03843809 C30.4751352,6.88035312 30.4105146,7.54634561 29.8638207,8.24426783 C29.8357427,8.28011154 29.804568,8.31162927 29.7727738,8.34149903 C29.8497817,8.32501916 29.9257573,8.30915729 29.999049,8.29473741 C31.3763131,8.02570364 32.7610095,7.71361623 34.171513,7.7774757 C34.9690502,7.8137314 35.7952848,7.82979926 36.6144999,7.88933277 C37.415134,7.82712129 38.2137036,7.82073534 39.0211507,7.90828461 C40.2159082,8.03785754 41.0568011,8.54090538 42.157415,8.90490436 C42.1974673,8.91808825 42.2379326,8.93230214 42.2786043,8.94734001 C42.175996,8.45191411 42.150189,7.95113226 42.1309887,7.4266606 C42.1022914,6.63954112 41.9864699,5.88579336 42.155144,5.1075318 C42.2174935,4.81975218 42.3973162,4.62879176 42.6211139,4.52867659 C42.6306108,4.46934908 42.6417594,4.41063957 42.6518757,4.35151806 C42.3706834,4.26396878 42.1204595,4.03510468 41.9920442,3.75144503 C41.7145681,3.59241434 41.43255,3.43564964 41.1470222,3.28259291 C41.1350478,3.47046335 41.1234862,3.6583338 41.1040794,3.84538025 C41.0764144,4.11338403 40.6562776,4.11997598 40.6781619,3.84538025 C40.6992204,3.58293842 40.707685,3.3198786 40.721724,3.05723078 C40.485539,2.9338378 40.2501798,2.8129168 40.0185369,2.69673376 Z M42.3118436,19.5037226 C42.2771591,19.1621774 42.2527974,18.8183663 42.2402036,18.4724952 C42.1838413,16.9112341 42.379561,15.3643929 42.4293168,13.8064278 C42.4687498,12.575794 42.1022914,11.117738 42.5003374,9.94354776 C42.5021955,9.93798581 42.5050859,9.93324785 42.5071505,9.92789189 C42.3277407,9.93077587 42.1353243,9.97691949 41.8941843,10.0026693 C41.4379179,10.0514909 41.1189442,9.92315393 40.6901363,9.79605298 C40.5592436,9.75711931 40.4264928,9.72395358 40.2931226,9.69325984 C40.3042712,9.76927321 40.2875483,9.80099694 40.1975337,9.7095337 C40.5534628,10.0704427 40.5324044,10.8062686 40.0251434,11.0441967 C39.9830265,11.0639725 39.9409096,11.0837483 39.8985863,11.1035242 C39.3483826,11.36164 38.6664603,11.1696496 38.4922119,10.5324969 C38.4525725,10.3874741 38.415617,10.2373013 38.399307,10.0858926 C38.066088,10.0671467 37.199801,9.79934896 37.0123395,9.77936712 C36.6322551,9.73878546 36.2507255,9.70376575 35.8689894,9.66874604 C34.6622575,9.83539866 33.4619257,10.0535509 32.2518905,10.0568468 C31.9322975,10.0576708 31.7347197,9.84343259 31.6771186,9.59438065 C31.3585579,9.63166635 31.0393778,9.67080602 30.7171009,9.70232376 C30.2682668,9.7464074 29.8217038,9.77380517 29.40838,9.91388401 C29.8010582,10.9729212 29.8237683,12.1664754 29.8764144,13.2869001 C29.934222,14.5134139 30.0145331,15.7423998 30.0161848,16.9705616 C30.01763,17.9550274 29.8272781,18.9240434 29.6534426,19.8924414 C30.1536841,20.1248075 30.6568159,20.3161799 31.1632511,20.4708846 C30.894859,20.1754831 30.9406921,19.5968338 31.4341206,19.3935135 C34.4374275,18.1558758 38.3286993,18.251253 41.4825122,18.7843766 C41.7558592,18.8303142 41.8877842,19.0295145 41.9084297,19.2509627 C42.0467549,19.3300661 42.1844606,19.4139074 42.3118436,19.5037226 Z M36.5996351,19.8001542 C34.9310624,19.8572157 33.3785177,20.1956709 31.7737397,20.6224994 C31.7603201,20.6262073 31.7481393,20.6264133 31.7349261,20.6292973 C33.7433244,21.1356411 35.8054011,21.1109213 37.9463438,20.8707273 C38.8753932,20.7666982 39.8636953,20.5920116 40.7758153,20.3629415 C40.8666557,20.3400757 40.9626575,20.302378 41.0582463,20.2692123 C40.918476,20.1620932 40.7690023,20.0397302 40.6531808,19.942911 C39.3019301,19.8920294 37.9583182,19.7538045 36.5996351,19.8001542 Z M63.5214216,112.242919 C63.5214216,113.033334 62.7222327,113.681199 61.9412119,113.444095 C61.808461,113.403719 61.6757102,113.363344 61.5427529,113.322968 C61.4686354,113.300308 61.3936921,113.268584 61.3206069,113.230063 C60.6316651,113.31102 59.9836016,112.725779 59.9836016,112.027445 C59.9836016,111.820416 60.041822,111.6241 60.1394754,111.451267 C60.1312172,111.442821 60.1235784,111.433964 60.1155266,111.425312 C60.1080942,111.417072 60.1006618,111.408626 60.0932294,111.40018 C60.0112666,111.307893 59.9416911,111.204481 59.8987484,111.099216 C59.8884256,111.111576 59.8793416,111.124142 59.8683995,111.136502 C59.4565209,111.596084 58.9851832,111.938659 58.4725544,112.193479 C58.455625,112.267845 58.4289923,112.339326 58.3893529,112.407511 C58.3222548,112.520605 58.2320338,112.610832 58.1184833,112.677575 C58.0080297,112.742259 57.8827113,112.775424 57.756567,112.77872 C57.7359215,112.800968 57.7158953,112.824658 57.6948368,112.8467 C57.2804808,113.282592 56.7672326,113.277236 56.3685672,113.045282 C56.3241793,113.078654 56.2777268,113.10976 56.2273517,113.136333 C55.9007392,113.308342 55.5978691,113.319054 55.2357463,113.2657 C55.0212392,113.234389 54.8282033,113.142307 54.6560195,113.018296 C54.549695,112.987603 54.4439898,112.956085 54.3391105,112.921683 C53.1540564,112.930953 51.9731314,112.87554 50.9274347,112.972565 C49.5695774,113.098636 48.2294753,113.331414 46.8763665,113.479733 C46.5582187,113.737848 46.1248687,113.789966 45.7299195,113.706125 C45.625866,113.684083 45.526148,113.645767 45.4309721,113.59777 C45.429114,113.59777 45.426843,113.597976 45.4247784,113.598182 C43.6054933,113.682847 41.8363768,113.479115 40.0439309,113.251898 C40.0267951,113.263846 40.0098657,113.275794 39.9927299,113.287948 C39.5901419,113.571402 39.019912,113.54833 38.5898654,113.367258 C38.3782486,113.27806 38.2106068,113.158581 38.0722816,113.013146 C34.6469798,112.635346 31.1585026,112.464985 27.7290716,112.513189 C26.939999,112.524106 26.1488619,112.513601 25.3581376,112.490735 C24.5023799,112.692201 23.6571514,112.931159 22.7776514,113.006761 C22.6479974,113.017884 22.5232983,113.023858 22.4010767,113.02736 C22.4000444,113.032098 22.3988057,113.036836 22.3975669,113.041574 C22.3180816,113.349748 22.0841676,113.57408 21.8007043,113.683877 C21.7585874,113.780078 21.7016057,113.868039 21.6299657,113.927985 C21.4932922,114.042932 21.3564123,114.157879 21.2197388,114.273032 C21.0698521,114.398897 20.9209978,114.528058 20.7244522,114.574408 C20.6115211,114.601187 20.4892995,114.604483 20.3730651,114.613753 C20.0439752,114.640327 19.6979559,114.29631 19.7245886,113.966919 C19.7344985,113.843938 19.7380082,113.712717 19.7706282,113.595092 C19.8236872,113.403513 19.9426056,113.268584 20.0662724,113.12212 C20.1816809,112.985749 20.2966766,112.849172 20.4118787,112.712595 C20.4238531,112.698587 20.4389244,112.689317 20.4517246,112.676339 C20.4521375,112.646263 20.4527569,112.616188 20.4558537,112.586524 C20.3127801,112.498769 20.1765195,112.397006 20.0458333,112.281029 C19.898837,112.394328 19.6756587,112.482701 19.5092556,112.465397 C19.4372027,112.457981 19.3651498,112.450565 19.2930968,112.442943 C19.1465135,112.448505 19.00984,112.418017 18.8828699,112.35148 C18.7928553,112.326348 18.7146087,112.280823 18.6481301,112.214903 C18.5009274,112.101604 18.384693,111.955139 18.3122271,111.784985 C17.6676733,111.699701 17.0270421,111.608032 16.4089146,111.382052 C16.2001882,111.305833 16.0308948,111.191092 15.9004149,111.053073 C15.7255472,111.216429 15.4303159,111.358156 15.1895889,111.336526 C15.117536,111.33014 15.0456895,111.323754 14.9734301,111.317162 C14.7900977,111.31675 14.6191526,111.270607 14.4608013,111.178938 C14.3922581,111.125996 14.3235084,111.073055 14.2549652,111.020319 C14.0555293,110.837598 13.969231,110.565681 13.957463,110.303445 C13.9496177,110.130612 14.0101091,109.941712 14.1050786,109.782887 C13.700426,109.097325 13.4708476,108.173835 13.3556454,107.487448 C12.887611,104.698231 12.6495679,101.91231 12.5382884,99.0874557 C12.4984426,98.0757981 12.4317575,97.0416867 12.3861308,96.0042793 C11.9375032,96.0051033 11.489082,96.0020133 11.0414867,95.9890354 C10.5866654,95.9756455 10.1353538,95.9546337 9.68507457,95.8835643 C9.50628418,95.8551365 9.05765656,95.8637884 9.16150363,95.6969298 C8.85182051,96.1956517 8.04251527,95.8714104 8.20623441,95.2952331 C8.49878174,94.2654477 10.2369299,94.4763899 11.0414867,94.4384862 C11.4738043,94.4180924 11.9059155,94.3944026 12.3380267,94.3725668 C12.3281168,93.4161167 12.3578464,92.4650226 12.4645839,91.5343223 C12.7505246,89.0417429 12.487294,86.5363917 12.751144,84.0425763 C13.0222199,81.4809875 12.8192743,78.8324674 12.8128742,76.2574887 C12.8060611,73.5922828 12.7992481,70.9274889 12.7924351,68.2622829 C12.7854156,65.478628 12.9437669,62.6910591 12.8900885,59.9080221 C12.864488,58.592311 12.7321501,57.2803079 12.7352469,55.9637728 C12.7360727,55.5571321 12.7583699,55.1529635 12.7899576,54.7498248 C12.7909899,54.6488856 12.7922286,54.5479465 12.7932609,54.4470073 C12.8122548,52.8818323 12.9551219,51.3234552 13.1324671,49.769198 C13.1671517,48.1768312 13.1493965,46.5797265 13.1615774,44.9908616 C12.8973144,44.7953692 12.9030952,44.3543269 13.1731389,44.1592465 C13.190894,43.2734538 13.2356949,42.3893091 13.2910249,41.5059885 C12.5535662,39.0951904 13.0374976,36.3535591 13.475596,33.9172173 C13.8604289,31.776689 14.6331916,29.5057638 16.3139451,28.0186621 C17.0670945,27.3524636 18.0316542,27.0203944 18.9580197,26.6693733 C20.1135506,26.2312149 21.274243,25.8029445 22.4562003,25.4401815 C23.5632142,25.1006963 24.6813768,24.7455552 25.8104814,24.4705475 C25.8503273,24.1160244 26.0169369,23.7495535 26.1455586,23.4343761 C26.2085275,23.2804953 26.2838837,23.1365025 26.363782,22.9958057 C26.3703885,22.9276203 26.382363,22.8575808 26.4071376,22.7838335 C26.5840699,22.2573018 26.8815722,21.870437 27.1400543,21.392315 C27.4321888,20.8513635 27.4487052,20.2514964 27.5525523,19.6580153 C27.7509559,18.5233767 28.0055154,17.4972992 28.0228577,16.3364988 C28.0410258,15.1204909 28.0967687,13.896655 28.1770799,12.6831191 C28.2284873,11.9058875 28.276385,11.118974 28.4741692,10.3724362 C28.2400488,10.3880921 28.0042767,10.2418333 27.9307786,9.98618941 C27.4326017,9.85723448 27.0436397,9.32514088 27.3785103,8.73248379 C27.7396009,8.0069578 27.6004499,7.09005939 27.6279085,6.30438189 C27.6380248,6.01907425 27.676632,5.6997769 27.6960388,5.37780156 C27.6888128,5.29499025 27.6815869,5.21217893 27.6735351,5.13019161 C27.6656898,5.05314825 27.662593,4.9750749 27.6611478,4.89679555 C27.5703074,4.50787077 27.4763702,4.11997598 27.3599294,3.73599516 C27.2775536,3.4649014 27.3134769,3.22161741 27.4210402,3.02138707 C27.3873879,2.91303197 27.3582777,2.80282288 27.3419677,2.68766983 C27.2676438,2.15907821 27.3923429,1.70711795 27.8669839,1.40079849 C29.1174843,0.594109167 30.8064961,0.508207879 32.2508582,0.341967255 C33.7924608,0.164396725 35.9583846,-0.305485385 37.4252503,0.298913611 C37.6742356,0.401500762 37.8360966,0.572479347 37.9153755,0.764469757 C38.9623109,0.879828802 40.0071818,0.818853307 41.0010582,1.22549394 C41.0563882,1.24815375 41.1150216,1.26854758 41.1722097,1.28976541 C41.3272577,1.17708434 41.5192613,1.28502745 41.5638557,1.42778427 C42.1912737,1.63460655 42.8630796,1.82309499 43.3907796,2.18132603 C43.8957696,1.45724202 44.9552988,2.34900864 44.5314458,2.93424979 C44.213298,3.97103921 44.1635423,5.03852237 44.3167322,6.11445146 C44.479832,7.26186197 45.1309924,8.52401352 44.8134639,9.68316592 C44.6532545,10.2677891 44.2194917,10.5271409 43.7630188,10.5327029 C44.0091136,11.5795862 44.0757987,12.7737583 44.1459936,13.8064278 C44.2428212,15.234202 44.2021494,16.6702161 44.3559587,18.0944883 C44.488916,19.3247101 44.7244816,20.6239413 45.2080002,21.7694979 C45.676654,22.8802407 46.3463954,23.8171209 46.459533,25.0358068 C46.9682391,25.1212961 47.4757065,25.2133773 47.9806965,25.3009266 C49.3185276,25.5334987 50.5582924,25.9588852 51.8502904,26.3601699 C53.0349316,26.7282888 54.2412506,27.0306943 55.396988,27.4863625 C57.4850781,28.3095317 59.1885418,29.4709501 60.1440174,31.5537989 C61.1954949,33.8457359 61.3839887,36.24953 61.2939741,38.7567352 C61.2865417,38.9641755 61.2369924,39.142158 61.1587458,39.2927428 C61.1839334,39.4486835 61.206437,39.6056542 61.2252245,39.7644789 C61.3885307,41.1605293 61.3695368,42.5850075 61.3796531,43.9882679 C61.400918,46.8471122 61.5836311,49.7100765 61.5307785,52.5683029 C61.4814356,55.2361868 61.2725028,57.8327953 61.4382865,60.5037692 C61.6053089,63.1961669 61.5898247,65.9009245 61.5037328,68.5960002 C61.4178474,71.2840719 61.3102841,73.9700837 61.2989291,76.6595974 C61.2879869,79.2148003 61.4956811,81.7496093 61.4727645,84.2986322 C61.4250733,89.5929943 61.3519881,94.9081623 61.4581062,100.201495 C61.4849454,101.528742 61.7194787,102.826943 61.7155561,104.165314 C61.7124593,105.372464 61.80619,106.625551 61.7287692,107.825903 C61.6812845,108.555961 61.329278,108.95704 60.8870505,109.345553 C60.917193,109.343081 60.9473355,109.340815 60.9772715,109.340815 C61.2972774,109.340815 61.5811536,109.474302 61.8121772,109.685862 C61.9585541,109.832739 62.0597173,110.006189 62.1158731,110.205596 C62.1648031,110.387904 62.1685193,110.570213 62.1319767,110.752521 C62.1259895,110.821737 62.1158731,110.891158 62.0970857,110.960373 C62.0948147,110.976441 62.0894469,110.992097 62.0857307,111.007959 C62.8174087,110.88539 63.5214216,111.502149 63.5214216,112.242919 Z M75.6486129,109.025637 C75.3601947,108.737858 74.8791535,108.581711 74.480901,108.71767 C74.4371325,108.732708 74.3933639,108.747746 74.3495954,108.762784 C74.1065974,108.845801 73.909226,108.970224 73.7502553,109.175192 C73.6001622,109.369243 73.4913602,109.620355 73.5027153,109.87229 C73.5120058,110.076641 73.5644454,110.272339 73.6602407,110.453206 C73.8000111,110.717295 74.0766613,110.888686 74.3495954,110.982003 C74.3933639,110.997041 74.4371325,111.012079 74.480901,111.026911 C74.8663533,111.158544 75.3758853,111.015375 75.6486129,110.718943 C75.8641523,110.484723 76,110.196738 76,109.87229 C76,109.565353 75.8662169,109.24276 75.6486129,109.025637 Z M68.4905971,108.395695 L66.8319343,108.144377 C66.2639754,108.058269 65.6927133,108.380863 65.6927133,109.010394 C65.6927133,109.634568 66.2635625,109.962518 66.8319343,109.876204 L68.4905971,109.624887 C69.1002599,109.532393 69.1006728,108.488394 68.4905971,108.395695 Z M67.4042287,112.726397 C67.2964589,112.62793 67.1715534,112.555212 67.0326089,112.510305 C66.932891,112.478169 66.833173,112.474255 66.7355196,112.486821 C66.8323472,112.412455 66.9184391,112.32676 66.9822338,112.219023 C67.0065955,112.185445 67.0307508,112.151662 67.0551126,112.117878 C67.2648713,111.825154 67.2287416,111.37134 67.0551126,111.074908 C66.8707479,110.760555 66.5259673,110.563209 66.1609541,110.563209 C65.7957345,110.563209 65.450954,110.760555 65.2665893,111.074908 C65.0929603,111.37134 65.0566241,111.825154 65.2665893,112.117878 C65.290951,112.151662 65.3151063,112.185445 65.3392616,112.219023 C65.4239083,112.36178 65.5376652,112.475285 65.6805324,112.559744 C65.8289738,112.645645 65.9889768,112.688699 66.1609541,112.689317 C66.1780899,112.689317 66.1948128,112.686845 66.2117422,112.685815 C66.0129256,112.801586 65.8260835,112.946815 65.638209,113.07474 C65.3413261,113.276618 65.1084444,113.588706 65.1253738,113.966919 C65.1375546,114.240896 65.2304596,114.499836 65.4286568,114.697595 C65.6163248,114.884847 65.895246,115 66.1609541,115 C66.5455806,115 66.8451474,114.795444 67.0551126,114.4883 C67.2194511,114.247694 67.4145514,114.009766 67.5357408,113.74444 C67.6166713,113.567076 67.6622979,113.406809 67.6356652,113.208845 C67.6119228,113.03251 67.5392505,112.850202 67.4042287,112.726397 Z M70.2642556,111.923827 C70.0142381,111.934951 69.7547236,112.016939 69.5800623,112.206663 C69.4163432,112.384852 69.2722373,112.638436 69.296599,112.889341 C69.3085734,113.00985 69.3131155,113.133037 69.3471806,113.249426 C69.3926008,113.410311 69.4739442,113.549772 69.5918303,113.668221 C69.6607864,113.721781 69.7297425,113.774928 69.7991115,113.827664 C70.0293093,114.003586 70.4994083,114.003586 70.730019,113.827664 C70.7991816,113.774928 70.8681377,113.721781 70.9368873,113.668221 C71.0549798,113.549772 71.1365297,113.410311 71.1817435,113.249426 C71.2158086,113.133037 71.2203506,113.00985 71.2321186,112.889341 C71.2548287,112.657181 71.1078324,112.365282 70.9488617,112.206663 C70.780807,112.039187 70.5053955,111.913116 70.2642556,111.923827 Z M5.90239841,112.165257 C4.9683941,112.165257 4.96674245,113.613631 5.90239841,113.613631 C6.83640272,113.613631 6.83805436,112.165257 5.90239841,112.165257 Z M11.3100852,107.976076 C11.3466278,108.054356 11.3763574,108.130575 11.4048482,108.206176 C11.4083579,108.211944 11.4112483,108.218124 11.4149645,108.223892 C11.3800736,108.141287 11.3451826,108.058681 11.3100852,107.976076 Z M11.6057293,112.05031 C11.6755113,112.140744 11.7236154,112.249923 11.7417834,112.369814 C11.7859649,112.663567 11.5869419,113.05105 11.2634262,113.100902 C10.6808091,113.190511 10.1407217,113.156521 9.58762762,112.939399 C9.30808698,112.829602 9.04795315,112.592086 9.06880515,112.259811 C9.06942452,112.253013 9.06983743,112.246421 9.07025034,112.239623 C8.91912497,112.064524 8.82332966,111.838132 8.81259398,111.59629 C8.78926452,111.077586 9.27381538,110.618416 9.78252153,110.621506 C9.872949,110.45197 10.0090031,110.304475 10.1910968,110.201064 C10.0209775,110.173666 9.86634243,110.124638 9.69808126,110.036059 C9.49451622,109.928734 9.34462959,109.738186 9.21827887,109.552375 C9.20217535,109.528479 9.18710411,109.504583 9.17347805,109.479246 C9.11587699,109.371303 9.06075339,109.237198 9.02193977,109.121427 C9.01264928,109.093823 9.00583625,109.066837 9.0000555,109.038203 C8.97631312,108.915428 8.95009329,108.764844 8.95401594,108.640627 C8.95752568,108.517646 8.97528085,108.365001 9.01822357,108.2482 C9.12723203,107.951974 9.29941585,107.658015 9.59196318,107.503722 C9.78809583,107.400311 10.000332,107.343661 10.2218587,107.333773 C10.4954121,107.321414 10.7679332,107.438833 10.9783113,107.601159 C11.1143654,107.688915 11.2215158,107.80551 11.2999689,107.950738 C11.3387825,108.04282 11.3778025,108.134901 11.4168226,108.227188 C11.4184743,108.229454 11.4195065,108.231926 11.4209517,108.234398 C11.4201259,108.233162 11.4195065,108.232132 11.4184743,108.231102 C11.4186807,108.231102 11.4186807,108.231308 11.4186807,108.231514 C11.4911466,108.334925 11.551638,108.444104 11.5883871,108.585831 C11.5970582,108.619409 11.6044906,108.653399 11.6137811,108.68677 C11.7549966,109.1892 11.5241794,109.7421 11.109617,110.029467 C11.6193554,110.14565 12.0312339,110.619652 12.0312339,111.165342 C12.0312339,111.515539 11.8613211,111.834836 11.6057293,112.05031 Z M17.6846027,111.961113 C17.4814505,111.804554 17.2712789,111.761501 17.0350939,111.780865 C17.0545007,111.778187 17.0739075,111.775715 17.0935208,111.773037 C17.0687461,111.776127 17.0447973,111.776951 17.020642,111.778393 C17.0136225,111.773861 17.0059837,111.770565 16.9987578,111.765827 C16.8480453,111.658502 16.6799906,111.589286 16.4853031,111.589286 C16.2718282,111.589286 16.0166493,111.684045 15.8694466,111.8439 C15.5397373,112.202337 15.5391179,112.715479 15.8694466,113.072886 C16.1878009,113.417109 16.6640935,113.610953 17.1333667,113.581496 C17.678409,113.547506 18.1028813,113.117794 18.0266993,112.553152 C17.9936664,112.306984 17.8817676,112.11314 17.6846027,111.961113 Z M6.55025551,110.547347 C5.75333759,110.547347 5.75189241,111.783337 6.55025551,111.783337 C7.34737988,111.783337 7.34861861,110.547347 6.55025551,110.547347 Z M2.01463643,111.077998 C1.49023967,111.050395 1.03005054,111.215193 0.523408947,111.31984 C-0.28279946,111.485875 -0.110822096,112.811474 0.718922228,112.761211 C1.22742192,112.730311 1.72683758,112.677987 2.21035617,112.519575 C3.00376434,112.259605 2.85222606,111.122082 2.01463643,111.077998 Z M49.0984461,86.9834079 C48.1869455,86.9038926 47.202566,86.7283821 46.2906524,86.7679337 C45.2344265,86.8138714 45.0950691,88.1983859 46.0486867,88.550849 C46.9608067,88.8880682 48.1433834,88.8958961 49.0984461,88.7988709 C50.2603772,88.6808339 50.2754485,87.0862011 49.0984461,86.9834079 Z M41.9711922,86.7003663 C41.04813,86.7807056 40.1605782,87.0701332 39.2501098,87.2365799 C38.558897,87.3632688 37.5848404,87.1988822 37.0963669,87.7682615 C37.0298882,87.8457168 37.0336044,87.9357381 37.0963669,88.0140174 C37.5546979,88.5852507 38.3749453,88.3790464 39.0463383,88.4047962 C40.0274144,88.4424939 40.9942452,88.6031725 41.9711922,88.6509641 C43.2400672,88.7129696 43.2183894,86.5918052 41.9711922,86.7003663 Z M30.4677028,87.3138292 C29.7118695,87.2058861 29.0210697,87.1597425 28.260075,87.2547077 C27.9920958,87.2880794 27.6487605,87.3987005 27.3114123,87.4815118 C27.1204411,87.2889034 26.8171581,87.1943502 26.530185,87.340815 C26.3072132,87.454526 26.0951835,87.5052016 25.8763407,87.6308606 C25.4279196,87.8885645 25.3465761,88.6905158 25.8763407,88.9245299 C26.5561984,89.2248754 27.1827906,89.1676079 27.9037329,89.0514248 C28.7978913,88.90702 29.6065772,88.7619972 30.4677028,88.4684497 C30.966912,88.2982951 31.1050306,87.4048805 30.4677028,87.3138292 Z M42.6264817,81.3765464 C38.7808366,81.5061193 34.6205535,80.7884212 30.9894156,82.3560683 C30.4722448,82.5793704 30.383469,83.2068412 30.4487089,83.6820793 C30.6448415,85.1112954 32.6844146,85.1419892 33.754473,85.0536159 C35.7044444,84.8925253 37.6506997,84.6389414 39.5953032,84.4212012 C39.8932184,84.3878294 40.1058675,84.2533126 40.2396506,84.075742 C41.1656032,84.0213585 42.0855685,83.8983775 42.9239839,83.5700162 C44.0186106,83.1415398 43.9855777,81.3306087 42.6264817,81.3765464 Z M30.355391,67.9124978 C31.2904276,67.3888502 32.0020794,66.6165626 32.7847519,65.8990705 C33.6555809,65.1006211 34.5617137,64.3390454 35.4538076,63.5644918 C35.706509,63.3451037 35.9610685,63.1275695 36.2148022,62.9094173 C36.8513043,63.4137011 37.5119616,63.908921 38.0648492,64.4989001 C38.7038288,65.1809605 38.9317555,66.0294674 39.1993218,66.9029002 C39.6083099,68.2379751 41.9552951,68.0750305 41.7655626,66.5564111 C41.4726024,64.2113265 40.4638612,62.7549185 38.5723166,61.372052 C38.4730116,61.2995406 38.3741194,61.2268232 38.2748144,61.1541058 C39.2530002,60.3303186 40.2369667,59.5131234 41.2256817,58.7010781 C42.1724862,57.9234345 40.9337537,56.3252998 39.9122123,57.0026222 C38.6579956,57.8340313 37.4607607,58.7420718 36.2847906,59.677922 C35.0871427,58.7719415 33.9111727,57.8391812 32.7859907,56.8398835 C31.6851704,55.8622156 30.0919539,57.4162667 31.1560251,58.466034 C32.1583662,59.4552379 33.208192,60.3912941 34.2796956,61.3030426 C34.1822486,61.3829699 34.0845952,61.4626912 33.9873547,61.5424126 C32.3008204,62.9234251 30.788328,64.4787123 29.1408138,65.8943325 C28.9188742,66.0220515 28.7495808,66.2239298 28.6616308,66.4972896 C28.6517209,66.5283953 28.641811,66.559295 28.6316947,66.5904008 C28.3100372,67.5909345 29.4952977,68.3941219 30.355391,67.9124978 Z M51.4536895,36.2318141 C50.2839131,36.5636774 49.1184723,36.5947831 47.9092629,36.603023 C46.6224263,36.611881 45.3374478,36.6843924 44.051437,36.727034 C41.6076242,36.8077854 39.1553468,36.9892699 36.7098823,36.9439502 C34.2167267,36.8976006 31.7270808,36.6903663 29.2355768,36.5943711 C26.7283822,36.4975519 24.1642059,36.6316568 21.6689858,36.4060887 C20.8055892,36.3278093 20.8154991,35.161035 21.6689858,35.0734857 C24.1458314,34.8190778 26.7484084,35.0123042 29.2355768,35.0683358 C31.6606022,35.1231313 34.08315,35.2660941 36.5087947,35.2986418 C39.0232153,35.3320136 41.5392875,35.1453791 44.051437,35.0508259 C46.447765,34.9608046 48.8686613,34.9838765 51.2581763,34.7902381 C52.1100113,34.7212286 52.2241812,36.0132499 51.4536895,36.2318141 Z" id="Fill-1" fill="#FEFEFE" mask="url(#mask-2)"></path>
            </g>
        </g>
    </g>
</svg>