<?xml version="1.0" encoding="UTF-8"?>
<svg width="30px" height="31px" viewBox="0 0 30 31" version="1.1" xmlns="http://www.w3.org/2000/svg" xmlns:xlink="http://www.w3.org/1999/xlink">
    <title>Path</title>
    <g id="Desktop" stroke="none" stroke-width="1" fill="none" fill-rule="evenodd">
        <g id="Home-Copy-4" transform="translate(-732.000000, -4394.000000)" fill="#98694C" fill-rule="nonzero">
            <g id="Footer" transform="translate(0.000000, 3746.000000)">
                <g id="Group-13" transform="translate(677.500000, 648.825241)">
                    <path d="M84.5,15.0873795 C84.5,6.80108914 77.7862903,0.0873794595 69.5,0.0873794595 C61.2137097,0.0873794595 54.5,6.80108914 54.5,15.0873795 C54.5,22.574073 59.9852823,28.7797182 67.15625,29.9059278 L67.15625,19.4234682 L63.3457661,19.4234682 L63.3457661,15.0873795 L67.15625,15.0873795 L67.15625,11.7825407 C67.15625,8.02346817 69.3941532,5.94705688 72.8217742,5.94705688 C74.4633065,5.94705688 76.1798387,6.23979881 76.1798387,6.23979881 L76.1798387,9.92931494 L74.2879032,9.92931494 C72.425,9.92931494 71.84375,11.0857666 71.84375,12.2718553 L71.84375,15.0873795 L76.0038306,15.0873795 L75.3385081,19.4234682 L71.84375,19.4234682 L71.84375,29.9059278 C79.0147177,28.7797182 84.5,22.574073 84.5,15.0873795 Z" id="Path"></path>
                </g>
            </g>
        </g>
    </g>
</svg>