<?xml version="1.0" encoding="UTF-8"?>
<svg width="389px" height="98px" viewBox="0 0 389 98" version="1.1" xmlns="http://www.w3.org/2000/svg" xmlns:xlink="http://www.w3.org/1999/xlink">
    <!-- Generator: Sketch 52.3 (67297) - http://www.bohemiancoding.com/sketch -->
    <title>Group 3</title>
    <desc>Created with Sketch.</desc>
    <defs>
        <polygon id="path-1" points="0 0 389 0 389 98 0 98"></polygon>
    </defs>
    <g id="Desktop" stroke="none" stroke-width="1" fill="none" fill-rule="evenodd">
        <g id="Coming-Soon" transform="translate(-526.000000, -344.000000)">
            <g id="Group-3" transform="translate(526.000000, 344.000000)">
                <mask id="mask-2" fill="white">
                    <use xlink:href="#path-1"></use>
                </mask>
                <g id="Clip-2"></g>
                <path d="M348.479016,90.1950134 L344.606165,94.1107417 L340.734216,90.1950134 L344.606165,86.2792851 L348.479016,90.1950134 Z M48.2666868,90.1950134 L44.3938353,94.1107417 L40.5218863,90.1950134 L44.3938353,86.2792851 L48.2666868,90.1950134 Z M322.716566,93.7219071 C322.716566,92.6092561 321.78784,92.2377639 320.980958,92.0159639 L317.850907,91.1506701 C315.527738,90.5071763 313.889606,89.6163253 313.889606,87.1436661 C313.889606,84.8188736 315.723592,83.2124209 318.511575,83.2124209 C319.758903,83.2124209 320.883483,83.6815781 321.78784,84.4729386 L322.325761,84.2255814 L322.325761,83.5583559 L324.600193,83.5583559 L324.600193,88.6524537 L322.643459,88.6524537 C321.762568,86.4025073 319.978223,85.4870118 318.511575,85.4870118 C317.117132,85.4870118 316.334619,86.1797945 316.334619,87.0697328 C316.334619,88.1586521 317.214608,88.429741 318.364459,88.7272998 L321.49451,89.6418825 C323.597457,90.2105302 325.162483,91.3724701 325.162483,93.549396 C325.162483,96.1945663 323.425972,98 320.417766,98 C318.999856,98 317.533209,97.3820634 316.627949,96.5651457 L316.115299,96.887349 L316.115299,97.654065 L313.840868,97.654065 L313.840868,91.9411178 L315.796698,91.9411178 C316.652318,94.537912 318.804905,95.7254091 320.417766,95.7254091 C322.032432,95.7254091 322.716566,94.9084914 322.716566,93.7219071 Z M289.536942,89.542392 L291.861014,89.542392 C294.134543,89.542392 294.990162,88.8258776 294.990162,87.6383805 C294.990162,86.4508834 294.134543,85.734369 291.861014,85.734369 L289.536942,85.734369 L289.536942,89.542392 Z M285.453796,97.654065 L285.453796,95.4780519 L286.383425,95.4780519 L287.263413,94.5872009 L287.263413,86.62522 L286.383425,85.734369 L285.453796,85.734369 L285.453796,83.5583559 L291.908849,83.5583559 C295.625559,83.5583559 297.557923,84.9932102 297.557923,87.6383805 C297.557923,89.7906619 296.310596,91.1260257 293.91432,91.5449812 L296.995633,95.3785614 L299.025473,95.3785614 L299.025473,97.654065 L293.988329,97.654065 L293.988329,95.4780519 L291.004492,91.7193179 L289.536942,91.7193179 L289.536942,94.5872009 L290.417833,95.4780519 L292.081237,95.4780519 L292.081237,97.654065 L285.453796,97.654065 Z M267.185237,95.4780519 L268.065225,94.5872009 L268.065225,92.1638306 L270.315288,92.1638306 L270.315288,97.654065 L257.3059,97.654065 L257.3059,95.4780519 L259.091148,95.4780519 L259.972039,94.5872009 L259.972039,86.62522 L259.091148,85.734369 L257.3059,85.734369 L257.3059,83.5583559 L270.26655,83.5583559 L270.26655,89.2959475 L268.01739,89.2959475 L268.01739,86.62522 L267.136499,85.734369 L262.245568,85.734369 L262.245568,89.5679492 L263.517265,89.5679492 L264.398155,88.6770982 L264.398155,87.2431566 L266.255608,87.2431566 L266.255608,93.8697738 L264.398155,93.8697738 L264.398155,92.4358322 L263.517265,91.5449812 L262.245568,91.5449812 L262.245568,95.4780519 L267.185237,95.4780519 Z M235.488506,83.5583559 L235.488506,85.734369 L234.094965,85.734369 L233.214074,86.62522 L233.214074,95.4780519 L238.153742,95.4780519 L239.033731,94.5872009 L239.033731,91.1744018 L241.282891,91.1744018 L241.282891,97.654065 L228.568638,97.654065 L228.568638,95.4780519 L230.060557,95.4780519 L230.940545,94.5872009 L230.940545,86.62522 L230.060557,85.734369 L228.568638,85.734369 L228.568638,83.5583559 L235.488506,83.5583559 Z M207.337,83.5583559 L207.337,85.734369 L205.943459,85.734369 L205.063471,86.62522 L205.063471,95.4780519 L210.002237,95.4780519 L210.883128,94.5872009 L210.883128,91.1744018 L213.132288,91.1744018 L213.132288,97.654065 L200.417132,97.654065 L200.417132,95.4780519 L201.908148,95.4780519 L202.789039,94.5872009 L202.789039,86.62522 L201.908148,85.734369 L200.417132,85.734369 L200.417132,83.5583559 L207.337,83.5583559 Z M177.556387,85.734369 L174.524715,85.734369 L174.524715,83.5583559 L184.818323,83.5583559 L184.818323,85.734369 L181.78665,85.734369 L180.906661,86.62522 L180.906661,94.5872009 L181.78665,95.4780519 L184.818323,95.4780519 L184.818323,97.654065 L174.524715,97.654065 L174.524715,95.4780519 L177.556387,95.4780519 L178.437278,94.5872009 L178.437278,86.62522 L177.556387,85.734369 Z M158.657847,83.5583559 L158.657847,90.0371064 L156.407784,90.0371064 L156.407784,86.62522 L155.527796,85.734369 L153.669441,85.734369 L153.669441,94.5872009 L154.549429,95.4780519 L157.337413,95.4780519 L157.337413,97.654065 L147.531183,97.654065 L147.531183,95.4780519 L150.319167,95.4780519 L151.199155,94.5872009 L151.199155,85.734369 L149.3408,85.734369 L148.460812,86.62522 L148.460812,90.0371064 L146.211652,90.0371064 L146.211652,83.5583559 L158.657847,83.5583559 Z M128.339313,93.7219071 C128.339313,92.6092561 127.409684,92.2377639 126.602803,92.0159639 L123.472752,91.1506701 C121.149582,90.5071763 119.51145,89.6163253 119.51145,87.1436661 C119.51145,84.8188736 121.345436,83.2124209 124.13342,83.2124209 C125.379845,83.2124209 126.505327,83.6815781 127.409684,84.4729386 L127.947606,84.2255814 L127.947606,83.5583559 L130.222037,83.5583559 L130.222037,88.6524537 L128.265304,88.6524537 C127.385316,86.4025073 125.600067,85.4870118 124.13342,85.4870118 C122.739879,85.4870118 121.957367,86.1797945 121.957367,87.0697328 C121.957367,88.1586521 122.837355,88.429741 123.986304,88.7272998 L127.116355,89.6418825 C129.219302,90.2105302 130.784327,91.3724701 130.784327,93.549396 C130.784327,96.1945663 129.047817,98 126.040513,98 C124.622603,98 123.155053,97.3820634 122.250696,96.5651457 L121.737144,96.887349 L121.737144,97.654065 L119.462712,97.654065 L119.462712,91.9411178 L121.418543,91.9411178 C122.275065,94.537912 124.426749,95.7254091 126.040513,95.7254091 C127.654276,95.7254091 128.339313,94.9084914 128.339313,93.7219071 Z M95.8447262,85.734369 L92.8121508,85.734369 L92.8121508,83.5583559 L103.106661,83.5583559 L103.106661,85.734369 L100.074988,85.734369 L99.1940974,86.62522 L99.1940974,94.5872009 L100.074988,95.4780519 L103.106661,95.4780519 L103.106661,97.654065 L92.8121508,97.654065 L92.8121508,95.4780519 L95.8447262,95.4780519 L96.7247146,94.5872009 L96.7247146,86.62522 L95.8447262,85.734369 Z M69.7068144,95.4780519 C73.0327193,95.4780519 74.6952204,93.3266832 74.6952204,90.6057541 C74.6952204,87.8866505 73.0327193,85.734369 69.7068144,85.734369 L68.3629142,85.734369 L68.3629142,95.4780519 L69.7068144,95.4780519 Z M63.83842,97.654065 L63.83842,95.4780519 L65.2084942,95.4780519 L66.0884826,94.6364898 L66.0884826,86.62522 L65.2084942,85.734369 L63.83842,85.734369 L63.83842,83.5583559 L69.7068144,83.5583559 C74.5733759,83.5583559 77.3117193,86.5750184 77.3117193,90.6057541 C77.3117193,94.6364898 74.5733759,97.654065 69.7068144,97.654065 L63.83842,97.654065 Z M57.1613387,13.0779849 L71.7826845,24.700122 L67.0045731,30.838414 L57.209174,23.046206 L50.1828051,28.7427236 L50.3227007,56.9761286 L57.0151253,65.9695251 L50.8407657,70.6583587 L42.6149049,59.602131 L42.4587633,28.2188009 L35.7681439,19.2354448 L41.9416009,14.5356581 L46.9967958,21.3238332 L57.1613387,13.0779849 Z M41.4930325,65.9695251 L35.3177703,70.6583587 L30.0856752,63.6264774 L17.5717889,72.2136969 L0.17599768,61.0351598 L0,11.3556121 L17.2847773,0 L35.5073063,11.5628079 L28.9096497,16.5847979 L17.3308074,9.28000224 L7.74119026,15.5816778 L7.87386543,56.7315097 L17.5257587,62.9355202 L27.0774687,56.6667039 L27.0882993,41.3679809 L14.2874014,41.3679809 L19.4229234,33.4562016 L34.8646891,33.4562016 L34.8692019,57.0692298 L41.4930325,65.9695251 Z M371.657459,60.2456248 L362.004664,54.042527 L361.871988,27.173694 L371.458898,20.8747567 L381.127037,27.0769417 L381.259712,53.9430365 L371.657459,60.2456248 Z M388.824905,22.7723789 L388.81949,22.7687278 L388.8231,22.7623385 L355.205738,1.20940326 L351.079269,7.80863766 L364.287218,16.276286 L354.131701,22.9476282 L354.306796,58.3452644 L371.702587,69.5247143 L389,58.1709278 L388.824905,22.7723789 Z M320.74449,54.3756834 L320.611814,27.5068503 L330.201432,21.2060875 L339.866863,27.4100981 L339.998636,54.2761929 L330.397285,60.5796939 L320.74449,54.3756834 Z M330.154499,11.9260853 L312.871527,23.2807846 L313.046622,58.6793335 L330.442413,69.8587834 L347.740729,58.5040841 L347.563828,23.1055352 L330.154499,11.9260853 Z M279.568253,54.5974834 L279.435578,27.7286503 L289.025195,21.4278875 L298.690626,27.6318981 L298.822399,54.4989056 L289.221049,60.8014939 L279.568253,54.5974834 Z M288.978262,12.1478853 L271.69529,23.5034974 L271.870385,58.9011335 L289.266176,70.0805834 L306.563589,58.7258841 L306.387592,23.3273352 L288.978262,12.1478853 Z M267.413582,42.3355035 C268.095009,49.9141263 265.368399,58.3370496 260.467541,63.7953375 C257.091995,67.5558971 253.056684,69.555748 248.795735,69.5767415 L247.667545,69.5803925 L235.276406,61.6202371 L221.826573,70.4493373 L204.429879,59.2698874 L204.271933,27.2996545 L197.580411,18.306258 L203.75477,13.6155988 L211.979729,24.6736521 L212.12865,54.9662373 L221.781445,61.1702478 L231.383698,54.8676595 L231.245608,27.1627409 L224.554086,18.1693444 L230.728445,13.4777725 L238.953404,24.534913 L239.102325,54.8274982 L249.766882,61.6768281 C251.897807,61.2952956 253.636123,59.7910717 254.748067,58.5469837 C258.215673,54.6841953 260.213923,48.4555403 259.72113,43.0474541 C258.529761,29.8581128 249.659478,22.7440834 241.756731,20.4831838 L240.212464,20.0414094 L242.3118,12.5266795 L243.85697,12.968454 C254.230905,15.9340021 265.86751,25.2067022 267.413582,42.3355035 Z M196.286151,56.1509961 L202.963232,65.1434798 L196.790677,69.834139 L188.578355,58.7742602 L188.427629,28.2480092 L178.764002,22.0439986 L169.17258,28.3456742 L169.312476,56.2879097 L175.989557,65.2794807 L169.8161,69.9710526 L161.605582,58.9111738 L161.449441,27.5762199 L154.743478,18.5928637 L160.917838,13.8921643 L166.197768,20.9842875 L178.717972,12.7639964 L196.125497,23.9434463 L196.286151,56.1509961 Z M141.192559,26.8432759 L124.567548,41.6536738 L124.502564,28.5866421 L134.103914,22.2849665 L141.192559,26.8432759 Z M134.059689,13.005877 L116.762276,24.3605763 L116.937371,59.7591252 L134.346701,70.9367497 L151.215401,59.8586158 L146.994165,53.3123213 L134.298865,61.6585729 L124.635239,55.4527369 L124.618993,52.0125551 L154.017826,25.8282899 L134.059689,13.005877 Z M100.286186,27.0641631 L83.6602715,41.8745611 L83.5952877,28.8066166 L93.1975406,22.5058538 L100.286186,27.0641631 Z M93.1542181,13.2258515 L75.855,24.5805508 L76.0300951,59.9800125 L93.4412297,71.1585496 L110.30993,60.0785903 L106.088694,53.5322958 L93.3933944,61.8794602 L83.7288654,55.6745369 L83.7117169,52.2325295 L113.112355,26.0500899 L93.1542181,13.2258515 Z" id="Fill-1" fill="#FEFEFE" mask="url(#mask-2)"></path>
            </g>
        </g>
    </g>
</svg>