<?xml version="1.0" encoding="UTF-8"?>
<svg width="31px" height="31px" viewBox="0 0 31 31" version="1.1" xmlns="http://www.w3.org/2000/svg" xmlns:xlink="http://www.w3.org/1999/xlink">
    <title>Shape</title>
    <g id="Desktop" stroke="none" stroke-width="1" fill="none" fill-rule="evenodd">
        <g id="Home-Copy-4" transform="translate(-677.000000, -4394.000000)" fill="#98694C" fill-rule="nonzero">
            <g id="Footer" transform="translate(0.000000, 3746.000000)">
                <g id="Group-13" transform="translate(677.500000, 648.825241)">
                    <path d="M15.0033463,7.30674847 C10.7467931,7.30674847 7.31344116,10.7401004 7.31344116,14.9966537 C7.31344116,19.2532069 10.7467931,22.6865588 15.0033463,22.6865588 C19.2598996,22.6865588 22.6932515,19.2532069 22.6932515,14.9966537 C22.6932515,10.7401004 19.2598996,7.30674847 15.0033463,7.30674847 Z M15.0033463,19.9960959 C12.2526492,19.9960959 10.0039041,17.7540435 10.0039041,14.9966537 C10.0039041,12.2392638 12.2459565,9.99721138 15.0033463,9.99721138 C17.7607362,9.99721138 20.0027886,12.2392638 20.0027886,14.9966537 C20.0027886,17.7540435 17.7540435,19.9960959 15.0033463,19.9960959 L15.0033463,19.9960959 Z M24.8014501,6.99219186 C24.8014501,7.98940323 23.9983268,8.7858338 23.0078081,8.7858338 C22.0105968,8.7858338 21.2141662,7.98271054 21.2141662,6.99219186 C21.2141662,6.00167317 22.0172895,5.19854992 23.0078081,5.19854992 C23.9983268,5.19854992 24.8014501,6.00167317 24.8014501,6.99219186 Z M29.8945901,8.81260457 C29.7808143,6.4099275 29.2320134,4.28165086 27.4718349,2.52816509 C25.7183491,0.774679308 23.5900725,0.225878416 21.1873954,0.105409927 C18.7110987,-0.0351366425 11.2889013,-0.0351366425 8.81260457,0.105409927 C6.41662019,0.219185722 4.28834356,0.767986615 2.52816509,2.52147239 C0.767986615,4.27495817 0.225878416,6.4032348 0.105409927,8.80591188 C-0.0351366425,11.2822086 -0.0351366425,18.704406 0.105409927,21.1807027 C0.219185722,23.5833798 0.767986615,25.7116564 2.52816509,27.4651422 C4.28834356,29.218628 6.4099275,29.7674289 8.81260457,29.8878974 C11.2889013,30.0284439 18.7110987,30.0284439 21.1873954,29.8878974 C23.5900725,29.7741216 25.7183491,29.2253207 27.4718349,27.4651422 C29.2253207,25.7116564 29.7741216,23.5833798 29.8945901,21.1807027 C30.0351366,18.704406 30.0351366,11.2889013 29.8945901,8.81260457 Z M26.6954824,23.8377022 C26.1734523,25.1494702 25.1628555,26.1600669 23.8443949,26.6887897 C21.8700502,27.4718349 17.1851645,27.2911322 15.0033463,27.2911322 C12.8215282,27.2911322 8.1299498,27.4651422 6.16229782,26.6887897 C4.85052984,26.1667596 3.83993307,25.1561629 3.31121026,23.8377022 C2.52816509,21.8633575 2.70886782,17.1784718 2.70886782,14.9966537 C2.70886782,12.8148355 2.53485778,8.12325711 3.31121026,6.15560513 C3.83324038,4.84383714 4.84383714,3.83324038 6.16229782,3.30451757 C8.1366425,2.52147239 12.8215282,2.70217513 15.0033463,2.70217513 C17.1851645,2.70217513 21.8767429,2.52816509 23.8443949,3.30451757 C25.1561629,3.82654769 26.1667596,4.83714445 26.6954824,6.15560513 C27.4785276,8.1299498 27.2978249,12.8148355 27.2978249,14.9966537 C27.2978249,17.1784718 27.4785276,21.8700502 26.6954824,23.8377022 Z" id="Shape"></path>
                </g>
            </g>
        </g>
    </g>
</svg>